<mxfile host="app.diagrams.net" agent="Mozilla/5.0 (Windows NT 10.0; Win64; x64) AppleWebKit/537.36 (KHTML, like Gecko) Chrome/141.0.0.0 Safari/537.36" version="28.2.7">
  <diagram name="PÃ¡gina-1" id="Eiuw2RqAJWja2RpXwZeM">
    <mxGraphModel dx="5127" dy="2926" grid="1" gridSize="10" guides="1" tooltips="1" connect="1" arrows="1" fold="1" page="1" pageScale="1" pageWidth="827" pageHeight="1169" math="0" shadow="0">
      <root>
        <mxCell id="0" />
        <mxCell id="1" parent="0" />
        <mxCell id="vX9YrlGYbFmtOFFq3-KN-1" value="" style="rounded=0;whiteSpace=wrap;html=1;fillColor=#e1d5e7;strokeColor=#9673a6;" parent="1" vertex="1">
          <mxGeometry x="-1550" y="3020" width="5577.5" height="2409" as="geometry" />
        </mxCell>
        <mxCell id="FR0yReCO0dyW5Au92fSE-71" value="" style="rounded=0;whiteSpace=wrap;html=1;fillColor=#f8cecc;strokeColor=#b85450;" parent="1" vertex="1">
          <mxGeometry x="-1550" y="-700" width="5370" height="3300" as="geometry" />
        </mxCell>
        <mxCell id="4TvWH-ocgxImasAHQ6Ib-8" value="" style="rounded=0;whiteSpace=wrap;html=1;strokeColor=default;align=center;verticalAlign=middle;fontFamily=Helvetica;fontSize=20;fontColor=default;fillColor=default;" parent="1" vertex="1">
          <mxGeometry x="207.5" y="-59" width="642.5" height="1410" as="geometry" />
        </mxCell>
        <mxCell id="bLrLj9wwr6JfQT5fFoHd-2" value="Clase EmisoraBLE" style="text;html=1;align=center;verticalAlign=middle;whiteSpace=wrap;rounded=0;fontSize=28;fontStyle=1" parent="1" vertex="1">
          <mxGeometry x="350" width="335" height="90" as="geometry" />
        </mxCell>
        <mxCell id="bLrLj9wwr6JfQT5fFoHd-4" value="encenderEmisora()" style="rounded=0;whiteSpace=wrap;html=1;fontSize=20;fontStyle=1" parent="1" vertex="1">
          <mxGeometry x="110" y="210" width="200" height="50" as="geometry" />
        </mxCell>
        <mxCell id="bLrLj9wwr6JfQT5fFoHd-5" value="detenerAnuncio()" style="rounded=0;whiteSpace=wrap;html=1;fontSize=20;fontStyle=1" parent="1" vertex="1">
          <mxGeometry x="110" y="460" width="175" height="46.25" as="geometry" />
        </mxCell>
        <mxCell id="4TvWH-ocgxImasAHQ6Ib-64" style="edgeStyle=orthogonalEdgeStyle;rounded=0;orthogonalLoop=1;jettySize=auto;html=1;fontFamily=Helvetica;fontSize=20;fontColor=default;" parent="1" source="bLrLj9wwr6JfQT5fFoHd-6" target="4TvWH-ocgxImasAHQ6Ib-63" edge="1">
          <mxGeometry relative="1" as="geometry" />
        </mxCell>
        <mxCell id="bLrLj9wwr6JfQT5fFoHd-6" value="estaAnunciado()" style="rounded=0;whiteSpace=wrap;html=1;fontSize=20;fontStyle=1" parent="1" vertex="1">
          <mxGeometry x="100" y="570" width="165" height="40" as="geometry" />
        </mxCell>
        <mxCell id="bLrLj9wwr6JfQT5fFoHd-7" value="emitirAnuncioIBeacon()" style="rounded=0;whiteSpace=wrap;html=1;fontSize=20;fontStyle=1" parent="1" vertex="1">
          <mxGeometry x="100" y="730" width="245" height="50" as="geometry" />
        </mxCell>
        <mxCell id="4TvWH-ocgxImasAHQ6Ib-79" style="edgeStyle=orthogonalEdgeStyle;rounded=0;orthogonalLoop=1;jettySize=auto;html=1;fontFamily=Helvetica;fontSize=20;fontColor=default;" parent="1" source="bLrLj9wwr6JfQT5fFoHd-9" target="4TvWH-ocgxImasAHQ6Ib-76" edge="1">
          <mxGeometry relative="1" as="geometry" />
        </mxCell>
        <mxCell id="bLrLj9wwr6JfQT5fFoHd-9" value="anyadirServicio()" style="rounded=0;whiteSpace=wrap;html=1;fontSize=20;fontStyle=1" parent="1" vertex="1">
          <mxGeometry x="695" y="82.5" width="230" height="40" as="geometry" />
        </mxCell>
        <mxCell id="4TvWH-ocgxImasAHQ6Ib-86" style="edgeStyle=orthogonalEdgeStyle;rounded=0;orthogonalLoop=1;jettySize=auto;html=1;entryX=0;entryY=0.5;entryDx=0;entryDy=0;fontFamily=Helvetica;fontSize=20;fontColor=default;" parent="1" source="bLrLj9wwr6JfQT5fFoHd-10" target="4TvWH-ocgxImasAHQ6Ib-85" edge="1">
          <mxGeometry relative="1" as="geometry" />
        </mxCell>
        <mxCell id="bLrLj9wwr6JfQT5fFoHd-10" value="anyadirServicioConSusCaracteristicas()" style="rounded=0;whiteSpace=wrap;html=1;fontSize=20;fontStyle=1" parent="1" vertex="1">
          <mxGeometry x="695" y="220" width="400" height="55" as="geometry" />
        </mxCell>
        <mxCell id="bLrLj9wwr6JfQT5fFoHd-11" value="instalarCallbackConexionEstablecida()" style="rounded=0;whiteSpace=wrap;html=1;fontSize=20;fontStyle=1" parent="1" vertex="1">
          <mxGeometry x="685" y="935" width="420" height="50" as="geometry" />
        </mxCell>
        <mxCell id="bLrLj9wwr6JfQT5fFoHd-12" value="instalarCallbackConexionEstablecida()" style="rounded=0;whiteSpace=wrap;html=1;fontSize=20;fontStyle=1" parent="1" vertex="1">
          <mxGeometry x="685" y="1055" width="410" height="40" as="geometry" />
        </mxCell>
        <mxCell id="4TvWH-ocgxImasAHQ6Ib-111" style="edgeStyle=orthogonalEdgeStyle;rounded=0;orthogonalLoop=1;jettySize=auto;html=1;entryX=0;entryY=0.5;entryDx=0;entryDy=0;fontFamily=Helvetica;fontSize=20;fontColor=default;" parent="1" source="bLrLj9wwr6JfQT5fFoHd-13" target="4TvWH-ocgxImasAHQ6Ib-109" edge="1">
          <mxGeometry relative="1" as="geometry" />
        </mxCell>
        <mxCell id="bLrLj9wwr6JfQT5fFoHd-13" value="getConexion()" style="rounded=0;whiteSpace=wrap;html=1;fontSize=20;fontStyle=1" parent="1" vertex="1">
          <mxGeometry x="675" y="1195" width="300" height="50" as="geometry" />
        </mxCell>
        <mxCell id="4TvWH-ocgxImasAHQ6Ib-6" style="edgeStyle=orthogonalEdgeStyle;rounded=0;orthogonalLoop=1;jettySize=auto;html=1;entryX=0;entryY=0.5;entryDx=0;entryDy=0;" parent="1" source="bLrLj9wwr6JfQT5fFoHd-18" target="4TvWH-ocgxImasAHQ6Ib-7" edge="1">
          <mxGeometry relative="1" as="geometry">
            <mxPoint x="90" y="110" as="targetPoint" />
          </mxGeometry>
        </mxCell>
        <mxCell id="bLrLj9wwr6JfQT5fFoHd-18" value="&lt;b&gt;nombreEmisora_&lt;/b&gt;: texto&lt;div&gt;&lt;br&gt;&lt;/div&gt;&lt;div&gt;&lt;b&gt;fabricantesID_&lt;/b&gt;: numero N&lt;/div&gt;&lt;div&gt;&lt;br&gt;&lt;/div&gt;&lt;div&gt;&lt;b&gt;txPower_&lt;/b&gt;: numero N&lt;/div&gt;" style="rounded=0;whiteSpace=wrap;html=1;fontSize=16;" parent="1" vertex="1">
          <mxGeometry x="-177.5" y="36.25" width="242.5" height="132.5" as="geometry" />
        </mxCell>
        <mxCell id="4TvWH-ocgxImasAHQ6Ib-7" value="&lt;font&gt;EmisoraBle()&lt;/font&gt;" style="rounded=0;whiteSpace=wrap;html=1;fontSize=20;fontStyle=1" parent="1" vertex="1">
          <mxGeometry x="110" y="80" width="160" height="45" as="geometry" />
        </mxCell>
        <mxCell id="4TvWH-ocgxImasAHQ6Ib-20" value="encenderEmisora()" style="rounded=0;whiteSpace=wrap;html=1;fontSize=20;fontStyle=1" parent="1" vertex="1">
          <mxGeometry x="110" y="330" width="200" height="50" as="geometry" />
        </mxCell>
        <mxCell id="4TvWH-ocgxImasAHQ6Ib-23" style="edgeStyle=orthogonalEdgeStyle;rounded=0;orthogonalLoop=1;jettySize=auto;html=1;entryX=0;entryY=0.5;entryDx=0;entryDy=0;fontFamily=Helvetica;fontSize=20;fontColor=default;" parent="1" source="4TvWH-ocgxImasAHQ6Ib-21" target="4TvWH-ocgxImasAHQ6Ib-20" edge="1">
          <mxGeometry relative="1" as="geometry" />
        </mxCell>
        <mxCell id="4TvWH-ocgxImasAHQ6Ib-21" value="&lt;div style=&quot;line-height: 19px; white-space: pre;&quot;&gt;&lt;span&gt;&lt;b style=&quot;&quot;&gt;cbce:&lt;/b&gt; objeto (callback)&lt;/span&gt;&lt;/div&gt;&lt;div&gt;&lt;br&gt;&lt;/div&gt;&lt;div&gt;&lt;div style=&quot;line-height: 19px; white-space: pre;&quot;&gt;&lt;span&gt;&lt;b style=&quot;&quot;&gt;cbct:&lt;/b&gt; objeto (callback)&lt;/span&gt;&lt;/div&gt;&lt;/div&gt;" style="rounded=0;whiteSpace=wrap;html=1;fontSize=16;fontColor=default;fontFamily=Helvetica;" parent="1" vertex="1">
          <mxGeometry x="-155" y="312.5" width="230" height="85" as="geometry" />
        </mxCell>
        <mxCell id="4TvWH-ocgxImasAHQ6Ib-35" value="" style="endArrow=classic;html=1;rounded=0;fontFamily=Helvetica;fontSize=20;fontColor=default;" parent="1" edge="1">
          <mxGeometry relative="1" as="geometry">
            <mxPoint x="310" y="234.8" as="sourcePoint" />
            <mxPoint x="335" y="234.8" as="targetPoint" />
          </mxGeometry>
        </mxCell>
        <mxCell id="4TvWH-ocgxImasAHQ6Ib-36" value="" style="edgeLabel;resizable=0;html=1;;align=center;verticalAlign=middle;rounded=0;strokeColor=default;fontFamily=Helvetica;fontSize=20;fontColor=default;fillColor=default;" parent="4TvWH-ocgxImasAHQ6Ib-35" connectable="0" vertex="1">
          <mxGeometry relative="1" as="geometry" />
        </mxCell>
        <mxCell id="4TvWH-ocgxImasAHQ6Ib-37" value="" style="endArrow=classic;html=1;rounded=0;fontFamily=Helvetica;fontSize=20;fontColor=default;" parent="1" edge="1">
          <mxGeometry relative="1" as="geometry">
            <mxPoint x="310" y="354.71" as="sourcePoint" />
            <mxPoint x="335" y="354.71" as="targetPoint" />
          </mxGeometry>
        </mxCell>
        <mxCell id="4TvWH-ocgxImasAHQ6Ib-38" value="" style="edgeLabel;resizable=0;html=1;;align=center;verticalAlign=middle;rounded=0;strokeColor=default;fontFamily=Helvetica;fontSize=20;fontColor=default;fillColor=default;" parent="4TvWH-ocgxImasAHQ6Ib-37" connectable="0" vertex="1">
          <mxGeometry relative="1" as="geometry" />
        </mxCell>
        <mxCell id="4TvWH-ocgxImasAHQ6Ib-39" value="" style="endArrow=classic;html=1;rounded=0;fontFamily=Helvetica;fontSize=20;fontColor=default;" parent="1" edge="1">
          <mxGeometry relative="1" as="geometry">
            <mxPoint x="285" y="482.84000000000003" as="sourcePoint" />
            <mxPoint x="310" y="482.84000000000003" as="targetPoint" />
          </mxGeometry>
        </mxCell>
        <mxCell id="4TvWH-ocgxImasAHQ6Ib-40" value="" style="edgeLabel;resizable=0;html=1;;align=center;verticalAlign=middle;rounded=0;strokeColor=default;fontFamily=Helvetica;fontSize=20;fontColor=default;fillColor=default;" parent="4TvWH-ocgxImasAHQ6Ib-39" connectable="0" vertex="1">
          <mxGeometry relative="1" as="geometry" />
        </mxCell>
        <mxCell id="4TvWH-ocgxImasAHQ6Ib-41" value="" style="endArrow=classic;html=1;rounded=0;fontFamily=Helvetica;fontSize=20;fontColor=default;" parent="1" edge="1">
          <mxGeometry relative="1" as="geometry">
            <mxPoint x="290" y="589.71" as="sourcePoint" />
            <mxPoint x="265" y="589.71" as="targetPoint" />
          </mxGeometry>
        </mxCell>
        <mxCell id="4TvWH-ocgxImasAHQ6Ib-42" value="" style="edgeLabel;resizable=0;html=1;;align=center;verticalAlign=middle;rounded=0;strokeColor=default;fontFamily=Helvetica;fontSize=20;fontColor=default;fillColor=default;" parent="4TvWH-ocgxImasAHQ6Ib-41" connectable="0" vertex="1">
          <mxGeometry relative="1" as="geometry" />
        </mxCell>
        <mxCell id="4TvWH-ocgxImasAHQ6Ib-43" value="" style="endArrow=classic;html=1;rounded=0;fontFamily=Helvetica;fontSize=20;fontColor=default;" parent="1" edge="1">
          <mxGeometry relative="1" as="geometry">
            <mxPoint x="345" y="754.71" as="sourcePoint" />
            <mxPoint x="370" y="754.71" as="targetPoint" />
          </mxGeometry>
        </mxCell>
        <mxCell id="4TvWH-ocgxImasAHQ6Ib-44" value="" style="edgeLabel;resizable=0;html=1;;align=center;verticalAlign=middle;rounded=0;strokeColor=default;fontFamily=Helvetica;fontSize=20;fontColor=default;fillColor=default;" parent="4TvWH-ocgxImasAHQ6Ib-43" connectable="0" vertex="1">
          <mxGeometry relative="1" as="geometry" />
        </mxCell>
        <mxCell id="4TvWH-ocgxImasAHQ6Ib-49" value="" style="endArrow=classic;html=1;rounded=0;fontFamily=Helvetica;fontSize=20;fontColor=default;" parent="1" edge="1">
          <mxGeometry relative="1" as="geometry">
            <mxPoint x="695" y="102.21000000000001" as="sourcePoint" />
            <mxPoint x="670" y="102.21000000000001" as="targetPoint" />
          </mxGeometry>
        </mxCell>
        <mxCell id="4TvWH-ocgxImasAHQ6Ib-50" value="" style="edgeLabel;resizable=0;html=1;;align=center;verticalAlign=middle;rounded=0;strokeColor=default;fontFamily=Helvetica;fontSize=20;fontColor=default;fillColor=default;" parent="4TvWH-ocgxImasAHQ6Ib-49" connectable="0" vertex="1">
          <mxGeometry relative="1" as="geometry" />
        </mxCell>
        <mxCell id="4TvWH-ocgxImasAHQ6Ib-51" value="" style="endArrow=classic;html=1;rounded=0;fontFamily=Helvetica;fontSize=20;fontColor=default;" parent="1" edge="1">
          <mxGeometry relative="1" as="geometry">
            <mxPoint x="695" y="250" as="sourcePoint" />
            <mxPoint x="670" y="250" as="targetPoint" />
          </mxGeometry>
        </mxCell>
        <mxCell id="4TvWH-ocgxImasAHQ6Ib-52" value="" style="edgeLabel;resizable=0;html=1;;align=center;verticalAlign=middle;rounded=0;strokeColor=default;fontFamily=Helvetica;fontSize=20;fontColor=default;fillColor=default;" parent="4TvWH-ocgxImasAHQ6Ib-51" connectable="0" vertex="1">
          <mxGeometry relative="1" as="geometry" />
        </mxCell>
        <mxCell id="4TvWH-ocgxImasAHQ6Ib-57" value="" style="endArrow=classic;html=1;rounded=0;fontFamily=Helvetica;fontSize=20;fontColor=default;" parent="1" edge="1">
          <mxGeometry relative="1" as="geometry">
            <mxPoint x="685" y="1074.71" as="sourcePoint" />
            <mxPoint x="660" y="1075" as="targetPoint" />
          </mxGeometry>
        </mxCell>
        <mxCell id="4TvWH-ocgxImasAHQ6Ib-58" value="" style="edgeLabel;resizable=0;html=1;;align=center;verticalAlign=middle;rounded=0;strokeColor=default;fontFamily=Helvetica;fontSize=20;fontColor=default;fillColor=default;" parent="4TvWH-ocgxImasAHQ6Ib-57" connectable="0" vertex="1">
          <mxGeometry relative="1" as="geometry" />
        </mxCell>
        <mxCell id="4TvWH-ocgxImasAHQ6Ib-59" value="" style="endArrow=classic;html=1;rounded=0;fontFamily=Helvetica;fontSize=20;fontColor=default;" parent="1" edge="1">
          <mxGeometry relative="1" as="geometry">
            <mxPoint x="675" y="1221.25" as="sourcePoint" />
            <mxPoint x="650" y="1221.54" as="targetPoint" />
          </mxGeometry>
        </mxCell>
        <mxCell id="4TvWH-ocgxImasAHQ6Ib-60" value="" style="edgeLabel;resizable=0;html=1;;align=center;verticalAlign=middle;rounded=0;strokeColor=default;fontFamily=Helvetica;fontSize=20;fontColor=default;fillColor=default;" parent="4TvWH-ocgxImasAHQ6Ib-59" connectable="0" vertex="1">
          <mxGeometry relative="1" as="geometry" />
        </mxCell>
        <mxCell id="4TvWH-ocgxImasAHQ6Ib-63" value="&lt;div style=&quot;line-height: 19px; white-space: pre;&quot;&gt;&lt;b&gt;V o F&lt;/b&gt;&lt;/div&gt;" style="rounded=0;whiteSpace=wrap;html=1;fontSize=16;fontColor=default;fontFamily=Helvetica;" parent="1" vertex="1">
          <mxGeometry x="-30" y="568.75" width="95" height="42.5" as="geometry" />
        </mxCell>
        <mxCell id="4TvWH-ocgxImasAHQ6Ib-65" value="" style="endArrow=classic;html=1;rounded=0;fontFamily=Helvetica;fontSize=20;fontColor=default;" parent="1" edge="1">
          <mxGeometry relative="1" as="geometry">
            <mxPoint x="270" y="102.3" as="sourcePoint" />
            <mxPoint x="295" y="102.3" as="targetPoint" />
          </mxGeometry>
        </mxCell>
        <mxCell id="4TvWH-ocgxImasAHQ6Ib-66" value="" style="edgeLabel;resizable=0;html=1;;align=center;verticalAlign=middle;rounded=0;strokeColor=default;fontFamily=Helvetica;fontSize=20;fontColor=default;fillColor=default;" parent="4TvWH-ocgxImasAHQ6Ib-65" connectable="0" vertex="1">
          <mxGeometry relative="1" as="geometry" />
        </mxCell>
        <mxCell id="4TvWH-ocgxImasAHQ6Ib-68" style="edgeStyle=orthogonalEdgeStyle;rounded=0;orthogonalLoop=1;jettySize=auto;html=1;fontFamily=Helvetica;fontSize=20;fontColor=default;" parent="1" source="4TvWH-ocgxImasAHQ6Ib-67" target="bLrLj9wwr6JfQT5fFoHd-7" edge="1">
          <mxGeometry relative="1" as="geometry" />
        </mxCell>
        <mxCell id="4TvWH-ocgxImasAHQ6Ib-67" value="&lt;div style=&quot;line-height: 19px; white-space: pre;&quot;&gt;&lt;div style=&quot;font-size: 14px; line-height: 19px;&quot;&gt;&lt;span&gt;&lt;b style=&quot;&quot;&gt;beaconUUID:&lt;/b&gt; [ numero N ]&lt;/span&gt;&lt;/div&gt;&lt;div style=&quot;font-size: 14px; line-height: 19px;&quot;&gt;&lt;div style=&quot;line-height: 19px;&quot;&gt;&lt;span&gt;&lt;b style=&quot;&quot;&gt;major:&lt;/b&gt; numero N&lt;/span&gt;&lt;/div&gt;&lt;div style=&quot;line-height: 19px;&quot;&gt;&lt;div style=&quot;line-height: 19px;&quot;&gt;&lt;span&gt;&lt;b style=&quot;&quot;&gt;minor:&lt;/b&gt; numero N&lt;/span&gt;&lt;/div&gt;&lt;/div&gt;&lt;/div&gt;&lt;div style=&quot;font-size: 14px; line-height: 19px;&quot;&gt;&lt;span&gt;&lt;b style=&quot;&quot;&gt;rssi:&lt;/b&gt; numero N&lt;/span&gt;&lt;/div&gt;&lt;/div&gt;" style="rounded=0;whiteSpace=wrap;html=1;fontSize=16;fontColor=default;fontFamily=Helvetica;" parent="1" vertex="1">
          <mxGeometry x="-155" y="695" width="230" height="120" as="geometry" />
        </mxCell>
        <mxCell id="4TvWH-ocgxImasAHQ6Ib-69" value="emitirAnuncioIBeaconLibre()" style="rounded=0;whiteSpace=wrap;html=1;fontSize=20;fontStyle=1" parent="1" vertex="1">
          <mxGeometry x="90" y="970" width="290" height="60" as="geometry" />
        </mxCell>
        <mxCell id="4TvWH-ocgxImasAHQ6Ib-70" value="" style="endArrow=classic;html=1;rounded=0;fontFamily=Helvetica;fontSize=20;fontColor=default;" parent="1" edge="1">
          <mxGeometry relative="1" as="geometry">
            <mxPoint x="380" y="999.76" as="sourcePoint" />
            <mxPoint x="405" y="999.76" as="targetPoint" />
          </mxGeometry>
        </mxCell>
        <mxCell id="4TvWH-ocgxImasAHQ6Ib-71" value="" style="edgeLabel;resizable=0;html=1;;align=center;verticalAlign=middle;rounded=0;strokeColor=default;fontFamily=Helvetica;fontSize=20;fontColor=default;fillColor=default;" parent="4TvWH-ocgxImasAHQ6Ib-70" connectable="0" vertex="1">
          <mxGeometry relative="1" as="geometry" />
        </mxCell>
        <mxCell id="4TvWH-ocgxImasAHQ6Ib-73" style="edgeStyle=orthogonalEdgeStyle;rounded=0;orthogonalLoop=1;jettySize=auto;html=1;fontFamily=Helvetica;fontSize=20;fontColor=default;" parent="1" source="4TvWH-ocgxImasAHQ6Ib-72" target="4TvWH-ocgxImasAHQ6Ib-69" edge="1">
          <mxGeometry relative="1" as="geometry" />
        </mxCell>
        <mxCell id="4TvWH-ocgxImasAHQ6Ib-72" value="&lt;div style=&quot;line-height: 19px; white-space: pre;&quot;&gt;&lt;div style=&quot;font-size: 14px; line-height: 19px;&quot;&gt;&lt;div style=&quot;line-height: 19px;&quot;&gt;&lt;div style=&quot;line-height: 19px;&quot;&gt;&lt;span&gt;&lt;b style=&quot;&quot;&gt;carga:&lt;/b&gt; caracteres&lt;/span&gt;&lt;/div&gt;&lt;div style=&quot;line-height: 19px;&quot;&gt;&lt;span&gt;&lt;b style=&quot;&quot;&gt;tamanyoCarga:&lt;/b&gt; numero N&lt;/span&gt;&lt;/div&gt;&lt;/div&gt;&lt;/div&gt;&lt;/div&gt;" style="rounded=0;whiteSpace=wrap;html=1;fontSize=16;fontColor=default;fontFamily=Helvetica;" parent="1" vertex="1">
          <mxGeometry x="-165" y="937.5" width="230" height="125" as="geometry" />
        </mxCell>
        <mxCell id="4TvWH-ocgxImasAHQ6Ib-81" style="edgeStyle=orthogonalEdgeStyle;rounded=0;orthogonalLoop=1;jettySize=auto;html=1;fontFamily=Helvetica;fontSize=20;fontColor=default;" parent="1" source="4TvWH-ocgxImasAHQ6Ib-74" edge="1">
          <mxGeometry relative="1" as="geometry">
            <mxPoint x="880" y="80" as="targetPoint" />
          </mxGeometry>
        </mxCell>
        <mxCell id="4TvWH-ocgxImasAHQ6Ib-74" value="&lt;div style=&quot;font-size: 14px; line-height: 19px; white-space: pre;&quot;&gt;&lt;span&gt;&lt;b style=&quot;&quot;&gt;servicio:&lt;/b&gt; objeto (ServicioEnEmisora)&lt;/span&gt;&lt;/div&gt;" style="rounded=0;whiteSpace=wrap;html=1;fontSize=16;fontFamily=Helvetica;fontColor=default;" parent="1" vertex="1">
          <mxGeometry x="970" width="340" height="41.25" as="geometry" />
        </mxCell>
        <mxCell id="4TvWH-ocgxImasAHQ6Ib-76" value="&lt;div style=&quot;line-height: 19px; white-space: pre;&quot;&gt;&lt;b&gt;V o F&lt;/b&gt;&lt;/div&gt;" style="rounded=0;whiteSpace=wrap;html=1;fontSize=16;fontColor=default;fontFamily=Helvetica;" parent="1" vertex="1">
          <mxGeometry x="970" y="81.25" width="95" height="42.5" as="geometry" />
        </mxCell>
        <mxCell id="4TvWH-ocgxImasAHQ6Ib-84" style="edgeStyle=orthogonalEdgeStyle;rounded=0;orthogonalLoop=1;jettySize=auto;html=1;entryX=0.5;entryY=0;entryDx=0;entryDy=0;fontFamily=Helvetica;fontSize=20;fontColor=default;" parent="1" source="4TvWH-ocgxImasAHQ6Ib-82" target="bLrLj9wwr6JfQT5fFoHd-10" edge="1">
          <mxGeometry relative="1" as="geometry" />
        </mxCell>
        <mxCell id="4TvWH-ocgxImasAHQ6Ib-82" value="&lt;div style=&quot;font-size: 14px; line-height: 19px; white-space: pre;&quot;&gt;&lt;div style=&quot;line-height: 19px;&quot;&gt;&lt;span&gt;&lt;b style=&quot;&quot;&gt;servicio:&lt;/b&gt; objeto &lt;/span&gt;&lt;/div&gt;&lt;/div&gt;" style="rounded=0;whiteSpace=wrap;html=1;fontSize=16;fontFamily=Helvetica;fontColor=default;" parent="1" vertex="1">
          <mxGeometry x="1140" y="168.75" width="260" height="50" as="geometry" />
        </mxCell>
        <mxCell id="4TvWH-ocgxImasAHQ6Ib-85" value="&lt;div style=&quot;line-height: 19px; white-space: pre;&quot;&gt;&lt;b&gt;V o F&lt;/b&gt;&lt;/div&gt;" style="rounded=0;whiteSpace=wrap;html=1;fontSize=16;fontColor=default;fontFamily=Helvetica;" parent="1" vertex="1">
          <mxGeometry x="1140" y="280" width="95" height="42.5" as="geometry" />
        </mxCell>
        <mxCell id="4TvWH-ocgxImasAHQ6Ib-94" style="edgeStyle=orthogonalEdgeStyle;rounded=0;orthogonalLoop=1;jettySize=auto;html=1;fontFamily=Helvetica;fontSize=20;fontColor=default;" parent="1" source="4TvWH-ocgxImasAHQ6Ib-88" target="4TvWH-ocgxImasAHQ6Ib-92" edge="1">
          <mxGeometry relative="1" as="geometry" />
        </mxCell>
        <mxCell id="4TvWH-ocgxImasAHQ6Ib-88" value="anyadirServicioConSusCaracteristicas()" style="rounded=0;whiteSpace=wrap;html=1;fontSize=20;fontStyle=1" parent="1" vertex="1">
          <mxGeometry x="695" y="440" width="400" height="55" as="geometry" />
        </mxCell>
        <mxCell id="4TvWH-ocgxImasAHQ6Ib-89" value="" style="endArrow=classic;html=1;rounded=0;fontFamily=Helvetica;fontSize=20;fontColor=default;" parent="1" edge="1">
          <mxGeometry relative="1" as="geometry">
            <mxPoint x="695" y="470" as="sourcePoint" />
            <mxPoint x="670" y="470" as="targetPoint" />
          </mxGeometry>
        </mxCell>
        <mxCell id="4TvWH-ocgxImasAHQ6Ib-90" value="" style="edgeLabel;resizable=0;html=1;;align=center;verticalAlign=middle;rounded=0;strokeColor=default;fontFamily=Helvetica;fontSize=20;fontColor=default;fillColor=default;" parent="4TvWH-ocgxImasAHQ6Ib-89" connectable="0" vertex="1">
          <mxGeometry relative="1" as="geometry" />
        </mxCell>
        <mxCell id="4TvWH-ocgxImasAHQ6Ib-93" style="edgeStyle=orthogonalEdgeStyle;rounded=0;orthogonalLoop=1;jettySize=auto;html=1;entryX=0.5;entryY=0;entryDx=0;entryDy=0;fontFamily=Helvetica;fontSize=20;fontColor=default;" parent="1" source="4TvWH-ocgxImasAHQ6Ib-91" target="4TvWH-ocgxImasAHQ6Ib-88" edge="1">
          <mxGeometry relative="1" as="geometry" />
        </mxCell>
        <mxCell id="4TvWH-ocgxImasAHQ6Ib-91" value="&lt;div style=&quot;font-size: 14px; line-height: 19px; white-space: pre;&quot;&gt;&lt;div style=&quot;line-height: 19px;&quot;&gt;&lt;span&gt;&lt;b style=&quot;&quot;&gt;servicio:&lt;/b&gt; objeto &lt;/span&gt;&lt;/div&gt;&lt;div style=&quot;line-height: 19px;&quot;&gt;&lt;span&gt;&lt;b style=&quot;&quot;&gt;caracteristica:&lt;/b&gt; objeto&lt;/span&gt;&lt;/div&gt;&lt;div style=&quot;text-align: left; line-height: 19px;&quot;&gt;&lt;span&gt;&lt;b style=&quot;&quot;&gt;restoCaracteristicas:&lt;/b&gt; objetos&lt;/span&gt;&lt;/div&gt;&lt;/div&gt;" style="rounded=0;whiteSpace=wrap;html=1;fontSize=16;fontFamily=Helvetica;fontColor=default;" parent="1" vertex="1">
          <mxGeometry x="1140" y="370" width="260" height="90" as="geometry" />
        </mxCell>
        <mxCell id="4TvWH-ocgxImasAHQ6Ib-92" value="&lt;div style=&quot;line-height: 19px; white-space: pre;&quot;&gt;&lt;b&gt;V o F&lt;/b&gt;&lt;/div&gt;" style="rounded=0;whiteSpace=wrap;html=1;fontSize=16;fontColor=default;fontFamily=Helvetica;" parent="1" vertex="1">
          <mxGeometry x="1140" y="495" width="95" height="42.5" as="geometry" />
        </mxCell>
        <mxCell id="4TvWH-ocgxImasAHQ6Ib-98" style="edgeStyle=orthogonalEdgeStyle;rounded=0;orthogonalLoop=1;jettySize=auto;html=1;entryX=1;entryY=0.5;entryDx=0;entryDy=0;fontFamily=Helvetica;fontSize=20;fontColor=default;" parent="1" source="4TvWH-ocgxImasAHQ6Ib-96" target="bLrLj9wwr6JfQT5fFoHd-11" edge="1">
          <mxGeometry relative="1" as="geometry" />
        </mxCell>
        <mxCell id="4TvWH-ocgxImasAHQ6Ib-96" value="&lt;div style=&quot;font-size: 14px; line-height: 19px; white-space: pre;&quot;&gt;&lt;div style=&quot;line-height: 19px;&quot;&gt;&lt;div style=&quot;line-height: 19px;&quot;&gt;&lt;span&gt;&lt;b style=&quot;&quot;&gt;cb:&lt;/b&gt; objeto (callback)&lt;/span&gt;&lt;/div&gt;&lt;/div&gt;&lt;/div&gt;" style="rounded=0;whiteSpace=wrap;html=1;fontSize=16;fontFamily=Helvetica;fontColor=default;" parent="1" vertex="1">
          <mxGeometry x="1150" y="927.5" width="260" height="65" as="geometry" />
        </mxCell>
        <mxCell id="4TvWH-ocgxImasAHQ6Ib-104" style="edgeStyle=orthogonalEdgeStyle;rounded=0;orthogonalLoop=1;jettySize=auto;html=1;entryX=0.5;entryY=0;entryDx=0;entryDy=0;fontFamily=Helvetica;fontSize=20;fontColor=default;" parent="1" source="4TvWH-ocgxImasAHQ6Ib-99" target="4TvWH-ocgxImasAHQ6Ib-102" edge="1">
          <mxGeometry relative="1" as="geometry" />
        </mxCell>
        <mxCell id="4TvWH-ocgxImasAHQ6Ib-99" value="anyadirServicioConSusCaracteristicasYActivar()" style="rounded=0;whiteSpace=wrap;html=1;fontSize=20;fontStyle=1" parent="1" vertex="1">
          <mxGeometry x="695" y="670" width="465" height="70" as="geometry" />
        </mxCell>
        <mxCell id="4TvWH-ocgxImasAHQ6Ib-103" style="edgeStyle=orthogonalEdgeStyle;rounded=0;orthogonalLoop=1;jettySize=auto;html=1;fontFamily=Helvetica;fontSize=20;fontColor=default;" parent="1" source="4TvWH-ocgxImasAHQ6Ib-100" target="4TvWH-ocgxImasAHQ6Ib-99" edge="1">
          <mxGeometry relative="1" as="geometry" />
        </mxCell>
        <mxCell id="4TvWH-ocgxImasAHQ6Ib-100" value="&lt;div style=&quot;font-size: 14px; line-height: 19px; white-space: pre;&quot;&gt;&lt;div style=&quot;line-height: 19px;&quot;&gt;&lt;span&gt;&lt;b style=&quot;&quot;&gt;servicio:&lt;/b&gt; objeto&lt;/span&gt;&lt;span style=&quot;background-color: rgb(255, 255, 255);&quot;&gt; &lt;/span&gt;&lt;/div&gt;&lt;div style=&quot;text-align: left; line-height: 19px;&quot;&gt;&lt;span&gt;&lt;b style=&quot;&quot;&gt;restoCaracteristicas:&lt;/b&gt; [ objetos ]&lt;/span&gt;&lt;/div&gt;&lt;/div&gt;" style="rounded=0;whiteSpace=wrap;html=1;fontSize=16;fontFamily=Helvetica;fontColor=default;" parent="1" vertex="1">
          <mxGeometry x="1190" y="560" width="260" height="90" as="geometry" />
        </mxCell>
        <mxCell id="4TvWH-ocgxImasAHQ6Ib-102" value="&lt;div style=&quot;line-height: 19px; white-space: pre;&quot;&gt;&lt;b&gt;V o F&lt;/b&gt;&lt;/div&gt;" style="rounded=0;whiteSpace=wrap;html=1;fontSize=16;fontColor=default;fontFamily=Helvetica;" parent="1" vertex="1">
          <mxGeometry x="1215" y="737.5" width="95" height="42.5" as="geometry" />
        </mxCell>
        <mxCell id="4TvWH-ocgxImasAHQ6Ib-106" style="edgeStyle=orthogonalEdgeStyle;rounded=0;orthogonalLoop=1;jettySize=auto;html=1;fontFamily=Helvetica;fontSize=20;fontColor=default;" parent="1" source="4TvWH-ocgxImasAHQ6Ib-105" target="bLrLj9wwr6JfQT5fFoHd-12" edge="1">
          <mxGeometry relative="1" as="geometry" />
        </mxCell>
        <mxCell id="4TvWH-ocgxImasAHQ6Ib-105" value="&lt;div style=&quot;font-size: 14px; line-height: 19px; white-space: pre;&quot;&gt;&lt;div style=&quot;line-height: 19px;&quot;&gt;&lt;div style=&quot;line-height: 19px;&quot;&gt;&lt;span&gt;&lt;b style=&quot;&quot;&gt;cb:&lt;/b&gt; objeto (callback)&lt;/span&gt;&lt;/div&gt;&lt;/div&gt;&lt;/div&gt;" style="rounded=0;whiteSpace=wrap;html=1;fontSize=16;fontFamily=Helvetica;fontColor=default;" parent="1" vertex="1">
          <mxGeometry x="1132.5" y="1042.5" width="260" height="65" as="geometry" />
        </mxCell>
        <mxCell id="4TvWH-ocgxImasAHQ6Ib-110" style="edgeStyle=orthogonalEdgeStyle;rounded=0;orthogonalLoop=1;jettySize=auto;html=1;entryX=0.75;entryY=0;entryDx=0;entryDy=0;fontFamily=Helvetica;fontSize=20;fontColor=default;" parent="1" source="4TvWH-ocgxImasAHQ6Ib-107" target="bLrLj9wwr6JfQT5fFoHd-13" edge="1">
          <mxGeometry relative="1" as="geometry" />
        </mxCell>
        <mxCell id="4TvWH-ocgxImasAHQ6Ib-107" value="&lt;div style=&quot;font-size: 14px; line-height: 19px; white-space: pre;&quot;&gt;&lt;div style=&quot;line-height: 19px;&quot;&gt;&lt;div style=&quot;line-height: 19px;&quot;&gt;&lt;div style=&quot;line-height: 19px;&quot;&gt;&lt;span&gt;&lt;b style=&quot;&quot;&gt;connHandle:&lt;/b&gt; numero N&lt;/span&gt;&lt;/div&gt;&lt;/div&gt;&lt;/div&gt;&lt;/div&gt;" style="rounded=0;whiteSpace=wrap;html=1;fontSize=16;fontFamily=Helvetica;fontColor=default;" parent="1" vertex="1">
          <mxGeometry x="1040" y="1140" width="260" height="65" as="geometry" />
        </mxCell>
        <mxCell id="4TvWH-ocgxImasAHQ6Ib-109" value="&lt;div style=&quot;font-size: 14px; line-height: 19px; white-space: pre;&quot;&gt;&lt;div style=&quot;line-height: 19px;&quot;&gt;&lt;div style=&quot;line-height: 19px;&quot;&gt;&lt;div style=&quot;line-height: 19px;&quot;&gt;&lt;div style=&quot;line-height: 19px;&quot;&gt;&lt;b&gt;objeto (BLEConnection*)&lt;/b&gt;&lt;/div&gt;&lt;/div&gt;&lt;/div&gt;&lt;/div&gt;&lt;/div&gt;" style="rounded=0;whiteSpace=wrap;html=1;fontSize=16;fontFamily=Helvetica;fontColor=default;" parent="1" vertex="1">
          <mxGeometry x="1040" y="1270" width="260" height="65" as="geometry" />
        </mxCell>
        <mxCell id="4TvWH-ocgxImasAHQ6Ib-112" value="&lt;b&gt;nombreEmisora&lt;/b&gt;: texto&amp;nbsp;&lt;div&gt;&lt;br&gt;&lt;/div&gt;&lt;div&gt;&lt;b&gt;fabricantesID&lt;/b&gt;: numero N&lt;/div&gt;&lt;div&gt;&lt;br&gt;&lt;/div&gt;&lt;div&gt;&lt;b&gt;txPower&lt;/b&gt;: numero N&lt;/div&gt;" style="rounded=0;whiteSpace=wrap;html=1;fontSize=16;" parent="1" vertex="1">
          <mxGeometry x="370" y="122.5" width="242.5" height="132.5" as="geometry" />
        </mxCell>
        <mxCell id="4TvWH-ocgxImasAHQ6Ib-113" value="" style="rounded=0;whiteSpace=wrap;html=1;strokeColor=default;align=center;verticalAlign=middle;fontFamily=Helvetica;fontSize=20;fontColor=default;fillColor=default;" parent="1" vertex="1">
          <mxGeometry x="-1090" y="-10" width="620" height="640" as="geometry" />
        </mxCell>
        <mxCell id="4TvWH-ocgxImasAHQ6Ib-114" value="Clase LED" style="text;html=1;align=center;verticalAlign=middle;whiteSpace=wrap;rounded=0;fontSize=28;fontStyle=1" parent="1" vertex="1">
          <mxGeometry x="-883.75" y="-10" width="170" height="90" as="geometry" />
        </mxCell>
        <mxCell id="4TvWH-ocgxImasAHQ6Ib-115" value="encender()" style="rounded=0;whiteSpace=wrap;html=1;fontSize=20;fontStyle=1" parent="1" vertex="1">
          <mxGeometry x="-1180" y="200" width="200" height="50" as="geometry" />
        </mxCell>
        <mxCell id="4TvWH-ocgxImasAHQ6Ib-116" value="alternar()" style="rounded=0;whiteSpace=wrap;html=1;fontSize=20;fontStyle=1" parent="1" vertex="1">
          <mxGeometry x="-1180" y="450" width="175" height="46.25" as="geometry" />
        </mxCell>
        <mxCell id="4TvWH-ocgxImasAHQ6Ib-117" value="brillar()" style="rounded=0;whiteSpace=wrap;html=1;fontSize=20;fontStyle=1" parent="1" vertex="1">
          <mxGeometry x="-1180" y="560" width="155" height="40" as="geometry" />
        </mxCell>
        <mxCell id="4TvWH-ocgxImasAHQ6Ib-119" value="&lt;font&gt;LED()&lt;/font&gt;" style="rounded=0;whiteSpace=wrap;html=1;fontSize=20;fontStyle=1" parent="1" vertex="1">
          <mxGeometry x="-1180" y="70" width="160" height="45" as="geometry" />
        </mxCell>
        <mxCell id="4TvWH-ocgxImasAHQ6Ib-120" value="apagar()" style="rounded=0;whiteSpace=wrap;html=1;fontSize=20;fontStyle=1" parent="1" vertex="1">
          <mxGeometry x="-1180" y="320" width="200" height="50" as="geometry" />
        </mxCell>
        <mxCell id="4TvWH-ocgxImasAHQ6Ib-121" value="" style="endArrow=classic;html=1;rounded=0;fontFamily=Helvetica;fontSize=20;fontColor=default;" parent="1" edge="1">
          <mxGeometry relative="1" as="geometry">
            <mxPoint x="-980" y="224.79999999999995" as="sourcePoint" />
            <mxPoint x="-955" y="224.79999999999995" as="targetPoint" />
          </mxGeometry>
        </mxCell>
        <mxCell id="4TvWH-ocgxImasAHQ6Ib-122" value="" style="edgeLabel;resizable=0;html=1;;align=center;verticalAlign=middle;rounded=0;strokeColor=default;fontFamily=Helvetica;fontSize=20;fontColor=default;fillColor=default;" parent="4TvWH-ocgxImasAHQ6Ib-121" connectable="0" vertex="1">
          <mxGeometry relative="1" as="geometry" />
        </mxCell>
        <mxCell id="4TvWH-ocgxImasAHQ6Ib-123" value="" style="endArrow=classic;html=1;rounded=0;fontFamily=Helvetica;fontSize=20;fontColor=default;" parent="1" edge="1">
          <mxGeometry relative="1" as="geometry">
            <mxPoint x="-980" y="344.71000000000004" as="sourcePoint" />
            <mxPoint x="-955" y="344.71000000000004" as="targetPoint" />
          </mxGeometry>
        </mxCell>
        <mxCell id="4TvWH-ocgxImasAHQ6Ib-124" value="" style="edgeLabel;resizable=0;html=1;;align=center;verticalAlign=middle;rounded=0;strokeColor=default;fontFamily=Helvetica;fontSize=20;fontColor=default;fillColor=default;" parent="4TvWH-ocgxImasAHQ6Ib-123" connectable="0" vertex="1">
          <mxGeometry relative="1" as="geometry" />
        </mxCell>
        <mxCell id="4TvWH-ocgxImasAHQ6Ib-125" value="" style="endArrow=classic;html=1;rounded=0;fontFamily=Helvetica;fontSize=20;fontColor=default;" parent="1" edge="1">
          <mxGeometry relative="1" as="geometry">
            <mxPoint x="-1005" y="472.84000000000015" as="sourcePoint" />
            <mxPoint x="-980" y="472.84000000000015" as="targetPoint" />
          </mxGeometry>
        </mxCell>
        <mxCell id="4TvWH-ocgxImasAHQ6Ib-126" value="" style="edgeLabel;resizable=0;html=1;;align=center;verticalAlign=middle;rounded=0;strokeColor=default;fontFamily=Helvetica;fontSize=20;fontColor=default;fillColor=default;" parent="4TvWH-ocgxImasAHQ6Ib-125" connectable="0" vertex="1">
          <mxGeometry relative="1" as="geometry" />
        </mxCell>
        <mxCell id="4TvWH-ocgxImasAHQ6Ib-127" value="" style="endArrow=classic;html=1;rounded=0;fontFamily=Helvetica;fontSize=20;fontColor=default;" parent="1" edge="1">
          <mxGeometry relative="1" as="geometry">
            <mxPoint x="-1025" y="579.71" as="sourcePoint" />
            <mxPoint x="-1000" y="579.71" as="targetPoint" />
          </mxGeometry>
        </mxCell>
        <mxCell id="4TvWH-ocgxImasAHQ6Ib-128" value="" style="edgeLabel;resizable=0;html=1;;align=center;verticalAlign=middle;rounded=0;strokeColor=default;fontFamily=Helvetica;fontSize=20;fontColor=default;fillColor=default;" parent="4TvWH-ocgxImasAHQ6Ib-127" connectable="0" vertex="1">
          <mxGeometry relative="1" as="geometry" />
        </mxCell>
        <mxCell id="4TvWH-ocgxImasAHQ6Ib-139" value="" style="endArrow=classic;html=1;rounded=0;fontFamily=Helvetica;fontSize=20;fontColor=default;" parent="1" edge="1">
          <mxGeometry relative="1" as="geometry">
            <mxPoint x="-1020" y="92" as="sourcePoint" />
            <mxPoint x="-995" y="92.29999999999995" as="targetPoint" />
          </mxGeometry>
        </mxCell>
        <mxCell id="4TvWH-ocgxImasAHQ6Ib-140" value="" style="edgeLabel;resizable=0;html=1;;align=center;verticalAlign=middle;rounded=0;strokeColor=default;fontFamily=Helvetica;fontSize=20;fontColor=default;fillColor=default;" parent="4TvWH-ocgxImasAHQ6Ib-139" connectable="0" vertex="1">
          <mxGeometry relative="1" as="geometry" />
        </mxCell>
        <mxCell id="4TvWH-ocgxImasAHQ6Ib-146" value="&lt;div&gt;&lt;b style=&quot;background-color: transparent; color: light-dark(rgb(0, 0, 0), rgb(255, 255, 255));&quot;&gt;numeroLED&lt;/b&gt;&lt;span style=&quot;background-color: transparent; color: light-dark(rgb(0, 0, 0), rgb(255, 255, 255));&quot;&gt;: numero N&lt;/span&gt;&lt;/div&gt;&lt;div&gt;&lt;br&gt;&lt;/div&gt;&lt;div&gt;&lt;b&gt;Encendido&lt;/b&gt;: V o F&lt;/div&gt;" style="rounded=0;whiteSpace=wrap;html=1;fontSize=16;" parent="1" vertex="1">
          <mxGeometry x="-920" y="113.75" width="242.5" height="105" as="geometry" />
        </mxCell>
        <mxCell id="4TvWH-ocgxImasAHQ6Ib-148" style="edgeStyle=orthogonalEdgeStyle;rounded=0;orthogonalLoop=1;jettySize=auto;html=1;entryX=0;entryY=0.5;entryDx=0;entryDy=0;fontFamily=Helvetica;fontSize=20;fontColor=default;" parent="1" source="4TvWH-ocgxImasAHQ6Ib-147" target="4TvWH-ocgxImasAHQ6Ib-119" edge="1">
          <mxGeometry relative="1" as="geometry" />
        </mxCell>
        <mxCell id="4TvWH-ocgxImasAHQ6Ib-147" value="&lt;b&gt;numero: &lt;/b&gt;numeros N" style="rounded=0;whiteSpace=wrap;html=1;fontSize=16;" parent="1" vertex="1">
          <mxGeometry x="-1480" y="70" width="242.5" height="43.75" as="geometry" />
        </mxCell>
        <mxCell id="4TvWH-ocgxImasAHQ6Ib-154" style="edgeStyle=orthogonalEdgeStyle;rounded=0;orthogonalLoop=1;jettySize=auto;html=1;entryX=0;entryY=0.5;entryDx=0;entryDy=0;fontFamily=Helvetica;fontSize=20;fontColor=default;" parent="1" source="4TvWH-ocgxImasAHQ6Ib-152" target="4TvWH-ocgxImasAHQ6Ib-117" edge="1">
          <mxGeometry relative="1" as="geometry" />
        </mxCell>
        <mxCell id="4TvWH-ocgxImasAHQ6Ib-152" value="&lt;b&gt;tiempo: &lt;/b&gt;numeros N" style="rounded=0;whiteSpace=wrap;html=1;fontSize=16;" parent="1" vertex="1">
          <mxGeometry x="-1460" y="558.13" width="242.5" height="43.75" as="geometry" />
        </mxCell>
        <mxCell id="4TvWH-ocgxImasAHQ6Ib-155" value="" style="rounded=0;whiteSpace=wrap;html=1;strokeColor=default;align=center;verticalAlign=middle;fontFamily=Helvetica;fontSize=20;fontColor=default;fillColor=default;" parent="1" vertex="1">
          <mxGeometry x="-1080" y="830" width="520" height="580" as="geometry" />
        </mxCell>
        <mxCell id="4TvWH-ocgxImasAHQ6Ib-156" value="Clase Medidor" style="text;html=1;align=center;verticalAlign=middle;whiteSpace=wrap;rounded=0;fontSize=28;fontStyle=1" parent="1" vertex="1">
          <mxGeometry x="-900.62" y="830" width="223.75" height="90" as="geometry" />
        </mxCell>
        <mxCell id="4TvWH-ocgxImasAHQ6Ib-157" value="iniciarMedidor()" style="rounded=0;whiteSpace=wrap;html=1;fontSize=20;fontStyle=1" parent="1" vertex="1">
          <mxGeometry x="-1170" y="1040" width="200" height="50" as="geometry" />
        </mxCell>
        <mxCell id="4TvWH-ocgxImasAHQ6Ib-183" style="edgeStyle=orthogonalEdgeStyle;rounded=0;orthogonalLoop=1;jettySize=auto;html=1;fontFamily=Helvetica;fontSize=20;fontColor=default;" parent="1" source="4TvWH-ocgxImasAHQ6Ib-158" target="4TvWH-ocgxImasAHQ6Ib-182" edge="1">
          <mxGeometry relative="1" as="geometry" />
        </mxCell>
        <mxCell id="4TvWH-ocgxImasAHQ6Ib-158" value="medirTemperatura()" style="rounded=0;whiteSpace=wrap;html=1;fontSize=20;fontStyle=1" parent="1" vertex="1">
          <mxGeometry x="-1170" y="1290" width="210" height="46.25" as="geometry" />
        </mxCell>
        <mxCell id="4TvWH-ocgxImasAHQ6Ib-160" value="&lt;font&gt;Medidor()&lt;/font&gt;" style="rounded=0;whiteSpace=wrap;html=1;fontSize=20;fontStyle=1" parent="1" vertex="1">
          <mxGeometry x="-1170" y="910" width="160" height="45" as="geometry" />
        </mxCell>
        <mxCell id="4TvWH-ocgxImasAHQ6Ib-161" value="medirCO2" style="rounded=0;whiteSpace=wrap;html=1;fontSize=20;fontStyle=1" parent="1" vertex="1">
          <mxGeometry x="-1170" y="1160" width="200" height="50" as="geometry" />
        </mxCell>
        <mxCell id="4TvWH-ocgxImasAHQ6Ib-164" value="" style="endArrow=classic;html=1;rounded=0;fontFamily=Helvetica;fontSize=20;fontColor=default;" parent="1" edge="1">
          <mxGeometry relative="1" as="geometry">
            <mxPoint x="-945" y="1184.71" as="sourcePoint" />
            <mxPoint x="-970" y="1184.71" as="targetPoint" />
          </mxGeometry>
        </mxCell>
        <mxCell id="4TvWH-ocgxImasAHQ6Ib-165" value="" style="edgeLabel;resizable=0;html=1;;align=center;verticalAlign=middle;rounded=0;strokeColor=default;fontFamily=Helvetica;fontSize=20;fontColor=default;fillColor=default;" parent="4TvWH-ocgxImasAHQ6Ib-164" connectable="0" vertex="1">
          <mxGeometry relative="1" as="geometry" />
        </mxCell>
        <mxCell id="4TvWH-ocgxImasAHQ6Ib-181" style="edgeStyle=orthogonalEdgeStyle;rounded=0;orthogonalLoop=1;jettySize=auto;html=1;fontFamily=Helvetica;fontSize=20;fontColor=default;exitX=0;exitY=0.5;exitDx=0;exitDy=0;" parent="1" source="4TvWH-ocgxImasAHQ6Ib-161" target="4TvWH-ocgxImasAHQ6Ib-177" edge="1">
          <mxGeometry relative="1" as="geometry" />
        </mxCell>
        <mxCell id="4TvWH-ocgxImasAHQ6Ib-177" value="&lt;b&gt;numeros N&lt;/b&gt;" style="rounded=0;whiteSpace=wrap;html=1;fontSize=16;" parent="1" vertex="1">
          <mxGeometry x="-1340" y="1161.56" width="132.5" height="46.88" as="geometry" />
        </mxCell>
        <mxCell id="4TvWH-ocgxImasAHQ6Ib-182" value="&lt;b&gt;numeros N&lt;/b&gt;" style="rounded=0;whiteSpace=wrap;html=1;fontSize=16;" parent="1" vertex="1">
          <mxGeometry x="-1340" y="1290" width="132.5" height="46.88" as="geometry" />
        </mxCell>
        <mxCell id="4TvWH-ocgxImasAHQ6Ib-184" value="" style="endArrow=classic;html=1;rounded=0;fontFamily=Helvetica;fontSize=20;fontColor=default;" parent="1" edge="1">
          <mxGeometry relative="1" as="geometry">
            <mxPoint x="-935" y="1312.92" as="sourcePoint" />
            <mxPoint x="-960" y="1312.92" as="targetPoint" />
          </mxGeometry>
        </mxCell>
        <mxCell id="4TvWH-ocgxImasAHQ6Ib-185" value="" style="edgeLabel;resizable=0;html=1;;align=center;verticalAlign=middle;rounded=0;strokeColor=default;fontFamily=Helvetica;fontSize=20;fontColor=default;fillColor=default;" parent="4TvWH-ocgxImasAHQ6Ib-184" connectable="0" vertex="1">
          <mxGeometry relative="1" as="geometry" />
        </mxCell>
        <mxCell id="FR0yReCO0dyW5Au92fSE-1" value="" style="rounded=0;whiteSpace=wrap;html=1;strokeColor=default;align=center;verticalAlign=middle;fontFamily=Helvetica;fontSize=20;fontColor=default;fillColor=default;" parent="1" vertex="1">
          <mxGeometry x="-1090" y="1600" width="520" height="880" as="geometry" />
        </mxCell>
        <mxCell id="FR0yReCO0dyW5Au92fSE-2" value="Clase Publicador" style="text;html=1;align=center;verticalAlign=middle;whiteSpace=wrap;rounded=0;fontSize=28;fontStyle=1" parent="1" vertex="1">
          <mxGeometry x="-970" y="1600" width="303.13" height="100" as="geometry" />
        </mxCell>
        <mxCell id="FR0yReCO0dyW5Au92fSE-6" value="&lt;font&gt;Publicador()&lt;/font&gt;" style="rounded=0;whiteSpace=wrap;html=1;fontSize=20;fontStyle=1" parent="1" vertex="1">
          <mxGeometry x="-1170" y="2160" width="160" height="45" as="geometry" />
        </mxCell>
        <mxCell id="FR0yReCO0dyW5Au92fSE-15" value="&lt;b&gt;beaconUUID: [caracteres]&lt;/b&gt;" style="rounded=0;whiteSpace=wrap;html=1;fontSize=16;" parent="1" vertex="1">
          <mxGeometry x="-951.25" y="1777.5" width="242.5" height="132.5" as="geometry" />
        </mxCell>
        <mxCell id="FR0yReCO0dyW5Au92fSE-16" value="&lt;b&gt;EmisoraBle: &lt;/b&gt;{&lt;div&gt;texto,&lt;/div&gt;&lt;div&gt;numeros,&lt;/div&gt;&lt;div&gt;numeros,&lt;/div&gt;&lt;div&gt;}&lt;/div&gt;" style="rounded=0;whiteSpace=wrap;html=1;fontSize=16;" parent="1" vertex="1">
          <mxGeometry x="-1223.75" y="1690" width="243.75" height="140" as="geometry" />
        </mxCell>
        <mxCell id="FR0yReCO0dyW5Au92fSE-17" value="&lt;b&gt;RSSI: &lt;/b&gt;numeros N" style="rounded=0;whiteSpace=wrap;html=1;fontSize=16;" parent="1" vertex="1">
          <mxGeometry x="-1221.87" y="1860" width="243.75" height="50" as="geometry" />
        </mxCell>
        <mxCell id="FR0yReCO0dyW5Au92fSE-22" value="&lt;div&gt;&lt;b&gt;&lt;br&gt;&lt;/b&gt;&lt;/div&gt;&lt;b&gt;MedicionesID: &lt;/b&gt;{&lt;div&gt;&lt;br&gt;&lt;div&gt;&lt;span style=&quot;background-color: transparent; color: light-dark(rgb(0, 0, 0), rgb(255, 255, 255));&quot;&gt;CO2 = numeros N,&lt;/span&gt;&lt;div&gt;TEMPERATURA = numeros Z,&lt;/div&gt;&lt;div&gt;RUIDO = numeros N,&lt;/div&gt;&lt;div&gt;&lt;br&gt;&lt;/div&gt;&lt;div&gt;} (enum)&lt;/div&gt;&lt;/div&gt;&lt;/div&gt;" style="rounded=0;whiteSpace=wrap;html=1;fontSize=16;" parent="1" vertex="1">
          <mxGeometry x="-1221.87" y="1950" width="243.75" height="170" as="geometry" />
        </mxCell>
        <mxCell id="FR0yReCO0dyW5Au92fSE-23" value="&lt;font&gt;encenderEmisora()&lt;/font&gt;" style="rounded=0;whiteSpace=wrap;html=1;fontSize=20;fontStyle=1" parent="1" vertex="1">
          <mxGeometry x="-1220" y="2270" width="210" height="45" as="geometry" />
        </mxCell>
        <mxCell id="FR0yReCO0dyW5Au92fSE-24" value="&lt;font&gt;PublicarCO2()&lt;/font&gt;" style="rounded=0;whiteSpace=wrap;html=1;fontSize=20;fontStyle=1" parent="1" vertex="1">
          <mxGeometry x="-647.19" y="1690" width="160" height="45" as="geometry" />
        </mxCell>
        <mxCell id="FR0yReCO0dyW5Au92fSE-26" style="edgeStyle=orthogonalEdgeStyle;rounded=0;orthogonalLoop=1;jettySize=auto;html=1;entryX=1;entryY=0.5;entryDx=0;entryDy=0;" parent="1" source="FR0yReCO0dyW5Au92fSE-25" target="FR0yReCO0dyW5Au92fSE-24" edge="1">
          <mxGeometry relative="1" as="geometry" />
        </mxCell>
        <mxCell id="FR0yReCO0dyW5Au92fSE-25" value="&lt;div style=&quot;font-size: 14px; line-height: 19px; white-space: pre;&quot;&gt;&lt;span style=&quot;background-color: light-dark(#ffffff, var(--ge-dark-color, #121212));&quot;&gt;&amp;nbsp;&lt;b style=&quot;&quot;&gt;valorCO2:&lt;/b&gt; numeros N&lt;/span&gt;&lt;/div&gt;&lt;div style=&quot;font-size: 14px; line-height: 19px; white-space: pre;&quot;&gt;&lt;span style=&quot;background-color: light-dark(#ffffff, var(--ge-dark-color, #121212));&quot;&gt;&lt;b style=&quot;&quot;&gt; &lt;span&gt;contador:&lt;/span&gt;&lt;/b&gt;&lt;span&gt; numeros N&lt;/span&gt;&lt;/span&gt;&lt;/div&gt;&lt;div style=&quot;font-size: 14px; line-height: 19px; white-space: pre;&quot;&gt; &lt;span&gt;&lt;b style=&quot;&quot;&gt;tiempoEspera:&lt;/b&gt; numeros N&lt;/span&gt;&lt;/div&gt;" style="rounded=0;whiteSpace=wrap;html=1;fontSize=16;fontFamily=Helvetica;fontColor=default;" parent="1" vertex="1">
          <mxGeometry x="-450" y="1642.5" width="243.75" height="140" as="geometry" />
        </mxCell>
        <mxCell id="FR0yReCO0dyW5Au92fSE-27" value="" style="endArrow=classic;html=1;rounded=0;fontFamily=Helvetica;fontSize=20;fontColor=default;" parent="1" edge="1">
          <mxGeometry relative="1" as="geometry">
            <mxPoint x="-647.19" y="1712.33" as="sourcePoint" />
            <mxPoint x="-672.19" y="1712.33" as="targetPoint" />
          </mxGeometry>
        </mxCell>
        <mxCell id="FR0yReCO0dyW5Au92fSE-28" value="" style="edgeLabel;resizable=0;html=1;;align=center;verticalAlign=middle;rounded=0;strokeColor=default;fontFamily=Helvetica;fontSize=20;fontColor=default;fillColor=default;" parent="FR0yReCO0dyW5Au92fSE-27" connectable="0" vertex="1">
          <mxGeometry relative="1" as="geometry" />
        </mxCell>
        <mxCell id="FR0yReCO0dyW5Au92fSE-30" value="&lt;font&gt;publicarTemperatura()&lt;/font&gt;" style="rounded=0;whiteSpace=wrap;html=1;fontSize=20;fontStyle=1" parent="1" vertex="1">
          <mxGeometry x="-641.87" y="1900" width="237.19" height="50" as="geometry" />
        </mxCell>
        <mxCell id="FR0yReCO0dyW5Au92fSE-31" value="" style="endArrow=classic;html=1;rounded=0;fontFamily=Helvetica;fontSize=20;fontColor=default;" parent="1" edge="1">
          <mxGeometry relative="1" as="geometry">
            <mxPoint x="-641.87" y="1924.83" as="sourcePoint" />
            <mxPoint x="-666.87" y="1924.83" as="targetPoint" />
          </mxGeometry>
        </mxCell>
        <mxCell id="FR0yReCO0dyW5Au92fSE-32" value="" style="edgeLabel;resizable=0;html=1;;align=center;verticalAlign=middle;rounded=0;strokeColor=default;fontFamily=Helvetica;fontSize=20;fontColor=default;fillColor=default;" parent="FR0yReCO0dyW5Au92fSE-31" connectable="0" vertex="1">
          <mxGeometry relative="1" as="geometry" />
        </mxCell>
        <mxCell id="FR0yReCO0dyW5Au92fSE-37" style="edgeStyle=orthogonalEdgeStyle;rounded=0;orthogonalLoop=1;jettySize=auto;html=1;" parent="1" source="FR0yReCO0dyW5Au92fSE-35" target="FR0yReCO0dyW5Au92fSE-30" edge="1">
          <mxGeometry relative="1" as="geometry" />
        </mxCell>
        <mxCell id="FR0yReCO0dyW5Au92fSE-35" value="&lt;div style=&quot;font-size: 14px; line-height: 19px; white-space: pre;&quot;&gt;&lt;span&gt;&amp;nbsp;&lt;span&gt;&lt;b style=&quot;&quot;&gt;valorTemperatura:&lt;/b&gt; numeros Z&lt;/span&gt;&lt;/span&gt;&lt;/div&gt;&lt;div style=&quot;font-size: 14px; line-height: 19px; white-space: pre;&quot;&gt;&lt;span&gt;&lt;b style=&quot;&quot;&gt; &lt;span&gt;contador:&lt;/span&gt;&lt;/b&gt;&lt;span&gt; numeros N&lt;/span&gt;&lt;/span&gt;&lt;/div&gt;&lt;div style=&quot;font-size: 14px; line-height: 19px; white-space: pre;&quot;&gt;&lt;span&gt; &lt;span&gt;&lt;b style=&quot;&quot;&gt;tiempoEspera:&lt;/b&gt; numeros N&lt;/span&gt;&lt;/span&gt;&lt;/div&gt;" style="rounded=0;whiteSpace=wrap;html=1;fontSize=16;fontFamily=Helvetica;fontColor=default;" parent="1" vertex="1">
          <mxGeometry x="-370" y="1855" width="243.75" height="140" as="geometry" />
        </mxCell>
        <mxCell id="FR0yReCO0dyW5Au92fSE-38" value="" style="rounded=0;whiteSpace=wrap;html=1;strokeColor=default;align=center;verticalAlign=middle;fontFamily=Helvetica;fontSize=20;fontColor=default;fillColor=default;" parent="1" vertex="1">
          <mxGeometry x="303.75" y="1550" width="520" height="510" as="geometry" />
        </mxCell>
        <mxCell id="FR0yReCO0dyW5Au92fSE-39" value="Clase PuertoSerie" style="text;html=1;align=center;verticalAlign=middle;whiteSpace=wrap;rounded=0;fontSize=28;fontStyle=1" parent="1" vertex="1">
          <mxGeometry x="423.75" y="1550" width="303.13" height="100" as="geometry" />
        </mxCell>
        <mxCell id="FR0yReCO0dyW5Au92fSE-47" style="edgeStyle=orthogonalEdgeStyle;rounded=0;orthogonalLoop=1;jettySize=auto;html=1;entryX=1;entryY=0.5;entryDx=0;entryDy=0;" parent="1" edge="1">
          <mxGeometry relative="1" as="geometry">
            <mxPoint x="906.5599999999995" y="1662.5" as="targetPoint" />
          </mxGeometry>
        </mxCell>
        <mxCell id="FR0yReCO0dyW5Au92fSE-54" style="edgeStyle=orthogonalEdgeStyle;rounded=0;orthogonalLoop=1;jettySize=auto;html=1;" parent="1" edge="1">
          <mxGeometry relative="1" as="geometry">
            <mxPoint x="989.0699999999997" y="1875.1428571428578" as="targetPoint" />
          </mxGeometry>
        </mxCell>
        <mxCell id="FR0yReCO0dyW5Au92fSE-57" value="&lt;font&gt;PuertoSerie()&lt;/font&gt;" style="rounded=0;whiteSpace=wrap;html=1;fontSize=20;fontStyle=1" parent="1" vertex="1">
          <mxGeometry x="205.02999999999997" y="1640" width="160" height="45" as="geometry" />
        </mxCell>
        <mxCell id="FR0yReCO0dyW5Au92fSE-58" style="edgeStyle=orthogonalEdgeStyle;rounded=0;orthogonalLoop=1;jettySize=auto;html=1;entryX=1;entryY=0.5;entryDx=0;entryDy=0;exitX=1;exitY=0.5;exitDx=0;exitDy=0;" parent="1" source="FR0yReCO0dyW5Au92fSE-57" edge="1">
          <mxGeometry relative="1" as="geometry">
            <mxPoint x="402.47" y="1663" as="targetPoint" />
          </mxGeometry>
        </mxCell>
        <mxCell id="FR0yReCO0dyW5Au92fSE-61" style="edgeStyle=orthogonalEdgeStyle;rounded=0;orthogonalLoop=1;jettySize=auto;html=1;entryX=0;entryY=0.5;entryDx=0;entryDy=0;" parent="1" source="FR0yReCO0dyW5Au92fSE-59" target="FR0yReCO0dyW5Au92fSE-57" edge="1">
          <mxGeometry relative="1" as="geometry" />
        </mxCell>
        <mxCell id="FR0yReCO0dyW5Au92fSE-59" value="&lt;div style=&quot;font-size: 14px; line-height: 19px; white-space: pre;&quot;&gt;&lt;span&gt;&lt;b style=&quot;&quot;&gt;baudios: &lt;/b&gt;numeros&lt;/span&gt;&lt;/div&gt;" style="rounded=0;whiteSpace=wrap;html=1;fontSize=16;fontFamily=Helvetica;fontColor=default;" parent="1" vertex="1">
          <mxGeometry x="-60" y="1636.25" width="235" height="52.5" as="geometry" />
        </mxCell>
        <mxCell id="FR0yReCO0dyW5Au92fSE-64" value="&lt;font&gt;esperarDisponible()&lt;/font&gt;" style="rounded=0;whiteSpace=wrap;html=1;fontSize=20;fontStyle=1" parent="1" vertex="1">
          <mxGeometry x="135" y="1800" width="230.03" height="45" as="geometry" />
        </mxCell>
        <mxCell id="FR0yReCO0dyW5Au92fSE-65" style="edgeStyle=orthogonalEdgeStyle;rounded=0;orthogonalLoop=1;jettySize=auto;html=1;entryX=1;entryY=0.5;entryDx=0;entryDy=0;exitX=1;exitY=0.5;exitDx=0;exitDy=0;" parent="1" target="FR0yReCO0dyW5Au92fSE-64" edge="1">
          <mxGeometry relative="1" as="geometry">
            <mxPoint x="402.47" y="1823" as="sourcePoint" />
          </mxGeometry>
        </mxCell>
        <mxCell id="FR0yReCO0dyW5Au92fSE-66" value="&lt;font&gt;escribir()&lt;/font&gt;" style="rounded=0;whiteSpace=wrap;html=1;fontSize=20;fontStyle=1" parent="1" vertex="1">
          <mxGeometry x="215" y="1935" width="150.03" height="45" as="geometry" />
        </mxCell>
        <mxCell id="FR0yReCO0dyW5Au92fSE-69" style="edgeStyle=orthogonalEdgeStyle;rounded=0;orthogonalLoop=1;jettySize=auto;html=1;" parent="1" source="FR0yReCO0dyW5Au92fSE-68" target="FR0yReCO0dyW5Au92fSE-66" edge="1">
          <mxGeometry relative="1" as="geometry" />
        </mxCell>
        <mxCell id="FR0yReCO0dyW5Au92fSE-68" value="&lt;div style=&quot;font-size: 14px; line-height: 19px; white-space: pre;&quot;&gt;&lt;span&gt;&lt;b style=&quot;&quot;&gt;mensaje: &lt;/b&gt;texto o numeros&lt;/span&gt;&lt;/div&gt;" style="rounded=0;whiteSpace=wrap;html=1;fontSize=16;fontFamily=Helvetica;fontColor=default;" parent="1" vertex="1">
          <mxGeometry x="-1.25" y="1930" width="175" height="56.25" as="geometry" />
        </mxCell>
        <mxCell id="FR0yReCO0dyW5Au92fSE-74" value="Arduino" style="text;html=1;align=center;verticalAlign=middle;whiteSpace=wrap;rounded=0;fontSize=150;fontStyle=1" parent="1" vertex="1">
          <mxGeometry x="460" y="-550" width="1347.5" height="220" as="geometry" />
        </mxCell>
        <mxCell id="FR0yReCO0dyW5Au92fSE-76" value="" style="rounded=0;whiteSpace=wrap;html=1;strokeColor=default;align=center;verticalAlign=middle;fontFamily=Helvetica;fontSize=20;fontColor=default;fillColor=default;" parent="1" vertex="1">
          <mxGeometry x="2177.5" y="-10" width="1082.5" height="1410" as="geometry" />
        </mxCell>
        <mxCell id="FR0yReCO0dyW5Au92fSE-77" value="Clase ServicioEnEmisora" style="text;html=1;align=center;verticalAlign=middle;whiteSpace=wrap;rounded=0;fontSize=28;fontStyle=1" parent="1" vertex="1">
          <mxGeometry x="2540" y="-10" width="380" height="100" as="geometry" />
        </mxCell>
        <mxCell id="FR0yReCO0dyW5Au92fSE-84" value="ServicioEnEmisora()" style="rounded=0;whiteSpace=wrap;html=1;fontSize=20;fontStyle=1" parent="1" vertex="1">
          <mxGeometry x="3135" y="360.62" width="230" height="40" as="geometry" />
        </mxCell>
        <mxCell id="FR0yReCO0dyW5Au92fSE-107" value="" style="endArrow=classic;html=1;rounded=0;fontFamily=Helvetica;fontSize=20;fontColor=default;" parent="1" edge="1">
          <mxGeometry relative="1" as="geometry">
            <mxPoint x="3135" y="380.33000000000004" as="sourcePoint" />
            <mxPoint x="3110" y="380.33000000000004" as="targetPoint" />
          </mxGeometry>
        </mxCell>
        <mxCell id="FR0yReCO0dyW5Au92fSE-108" value="" style="edgeLabel;resizable=0;html=1;;align=center;verticalAlign=middle;rounded=0;strokeColor=default;fontFamily=Helvetica;fontSize=20;fontColor=default;fillColor=default;" parent="FR0yReCO0dyW5Au92fSE-107" connectable="0" vertex="1">
          <mxGeometry relative="1" as="geometry" />
        </mxCell>
        <mxCell id="FR0yReCO0dyW5Au92fSE-111" value="" style="endArrow=classic;html=1;rounded=0;fontFamily=Helvetica;fontSize=20;fontColor=default;" parent="1" edge="1">
          <mxGeometry relative="1" as="geometry">
            <mxPoint x="2252.5" y="1112.21" as="sourcePoint" />
            <mxPoint x="2227.5" y="1112.5" as="targetPoint" />
          </mxGeometry>
        </mxCell>
        <mxCell id="FR0yReCO0dyW5Au92fSE-112" value="" style="edgeLabel;resizable=0;html=1;;align=center;verticalAlign=middle;rounded=0;strokeColor=default;fontFamily=Helvetica;fontSize=20;fontColor=default;fillColor=default;" parent="FR0yReCO0dyW5Au92fSE-111" connectable="0" vertex="1">
          <mxGeometry relative="1" as="geometry">
            <mxPoint x="310" y="-40" as="offset" />
          </mxGeometry>
        </mxCell>
        <mxCell id="FR0yReCO0dyW5Au92fSE-113" value="" style="endArrow=classic;html=1;rounded=0;fontFamily=Helvetica;fontSize=20;fontColor=default;" parent="1" edge="1">
          <mxGeometry relative="1" as="geometry">
            <mxPoint x="2242.5" y="1258.75" as="sourcePoint" />
            <mxPoint x="2217.5" y="1259.04" as="targetPoint" />
          </mxGeometry>
        </mxCell>
        <mxCell id="FR0yReCO0dyW5Au92fSE-114" value="" style="edgeLabel;resizable=0;html=1;;align=center;verticalAlign=middle;rounded=0;strokeColor=default;fontFamily=Helvetica;fontSize=20;fontColor=default;fillColor=default;" parent="FR0yReCO0dyW5Au92fSE-113" connectable="0" vertex="1">
          <mxGeometry relative="1" as="geometry">
            <mxPoint x="310" y="-40" as="offset" />
          </mxGeometry>
        </mxCell>
        <mxCell id="JTjQqQ8yrZWIEBTF-TQs-30" style="edgeStyle=orthogonalEdgeStyle;rounded=0;orthogonalLoop=1;jettySize=auto;html=1;" parent="1" source="FR0yReCO0dyW5Au92fSE-127" target="FR0yReCO0dyW5Au92fSE-84" edge="1">
          <mxGeometry relative="1" as="geometry" />
        </mxCell>
        <mxCell id="FR0yReCO0dyW5Au92fSE-127" value="&lt;div style=&quot;line-height: 19px; white-space: pre;&quot;&gt;&lt;b&gt;nombreServicio_: texto&lt;/b&gt;&lt;/div&gt;" style="rounded=0;whiteSpace=wrap;html=1;fontSize=16;fontColor=default;fontFamily=Helvetica;" parent="1" vertex="1">
          <mxGeometry x="3410" y="356.25" width="240" height="48.75" as="geometry" />
        </mxCell>
        <mxCell id="FR0yReCO0dyW5Au92fSE-163" value="" style="rounded=0;whiteSpace=wrap;html=1;" parent="1" vertex="1">
          <mxGeometry x="1870" y="210" width="860" height="1810" as="geometry" />
        </mxCell>
        <mxCell id="FR0yReCO0dyW5Au92fSE-164" value="Clase Caracteristica" style="text;html=1;align=center;verticalAlign=middle;whiteSpace=wrap;rounded=0;fontSize=28;fontStyle=1" parent="1" vertex="1">
          <mxGeometry x="2030" y="207.5" width="335" height="90" as="geometry" />
        </mxCell>
        <mxCell id="FR0yReCO0dyW5Au92fSE-150" value="&lt;b&gt;uuidCaracteristicas&lt;/b&gt;: [ caracteres ]&amp;nbsp;&lt;div&gt;&lt;br&gt;&lt;/div&gt;&lt;div&gt;&lt;b&gt;laCaracteristica&lt;/b&gt;: BLECharacteristic&lt;/div&gt;" style="rounded=0;whiteSpace=wrap;html=1;fontSize=16;" parent="1" vertex="1">
          <mxGeometry x="2060" y="330" width="290" height="132.5" as="geometry" />
        </mxCell>
        <mxCell id="FR0yReCO0dyW5Au92fSE-78" value="Caracteristica()" style="rounded=0;whiteSpace=wrap;html=1;fontSize=20;fontStyle=1" parent="1" vertex="1">
          <mxGeometry x="1772.5" y="297.5" width="200" height="50" as="geometry" />
        </mxCell>
        <mxCell id="FR0yReCO0dyW5Au92fSE-97" value="" style="endArrow=classic;html=1;rounded=0;fontFamily=Helvetica;fontSize=20;fontColor=default;" parent="1" edge="1">
          <mxGeometry relative="1" as="geometry">
            <mxPoint x="1972.5" y="322.29999999999995" as="sourcePoint" />
            <mxPoint x="1997.5" y="322.29999999999995" as="targetPoint" />
          </mxGeometry>
        </mxCell>
        <mxCell id="FR0yReCO0dyW5Au92fSE-98" value="" style="edgeLabel;resizable=0;html=1;;align=center;verticalAlign=middle;rounded=0;strokeColor=default;fontFamily=Helvetica;fontSize=20;fontColor=default;fillColor=default;" parent="FR0yReCO0dyW5Au92fSE-97" connectable="0" vertex="1">
          <mxGeometry relative="1" as="geometry" />
        </mxCell>
        <mxCell id="FR0yReCO0dyW5Au92fSE-167" style="edgeStyle=orthogonalEdgeStyle;rounded=0;orthogonalLoop=1;jettySize=auto;html=1;entryX=0;entryY=0.5;entryDx=0;entryDy=0;" parent="1" source="FR0yReCO0dyW5Au92fSE-165" target="FR0yReCO0dyW5Au92fSE-78" edge="1">
          <mxGeometry relative="1" as="geometry" />
        </mxCell>
        <mxCell id="FR0yReCO0dyW5Au92fSE-165" value="&lt;div style=&quot;line-height: 19px; white-space: pre;&quot;&gt;&lt;span&gt;&lt;b style=&quot;&quot;&gt;nombreCaracteristica_: &lt;/b&gt;&lt;span style=&quot;color: light-dark(rgb(0, 0, 0), rgb(255, 255, 255));&quot;&gt;texto&lt;/span&gt;&lt;/span&gt;&lt;/div&gt;" style="rounded=0;whiteSpace=wrap;html=1;fontSize=16;fontColor=default;fontFamily=Helvetica;" parent="1" vertex="1">
          <mxGeometry x="1450" y="280" width="290" height="85" as="geometry" />
        </mxCell>
        <mxCell id="FR0yReCO0dyW5Au92fSE-169" value="Caracteristica()" style="rounded=0;whiteSpace=wrap;html=1;fontSize=20;fontStyle=1" parent="1" vertex="1">
          <mxGeometry x="1772.5" y="422.5" width="200" height="50" as="geometry" />
        </mxCell>
        <mxCell id="FR0yReCO0dyW5Au92fSE-170" value="" style="endArrow=classic;html=1;rounded=0;fontFamily=Helvetica;fontSize=20;fontColor=default;" parent="1" edge="1">
          <mxGeometry relative="1" as="geometry">
            <mxPoint x="1972.5" y="447.29999999999995" as="sourcePoint" />
            <mxPoint x="1997.5" y="447.29999999999995" as="targetPoint" />
          </mxGeometry>
        </mxCell>
        <mxCell id="FR0yReCO0dyW5Au92fSE-171" value="" style="edgeLabel;resizable=0;html=1;;align=center;verticalAlign=middle;rounded=0;strokeColor=default;fontFamily=Helvetica;fontSize=20;fontColor=default;fillColor=default;" parent="FR0yReCO0dyW5Au92fSE-170" connectable="0" vertex="1">
          <mxGeometry relative="1" as="geometry" />
        </mxCell>
        <mxCell id="FR0yReCO0dyW5Au92fSE-175" style="edgeStyle=orthogonalEdgeStyle;rounded=0;orthogonalLoop=1;jettySize=auto;html=1;entryX=0.25;entryY=1;entryDx=0;entryDy=0;" parent="1" source="FR0yReCO0dyW5Au92fSE-172" target="FR0yReCO0dyW5Au92fSE-169" edge="1">
          <mxGeometry relative="1" as="geometry" />
        </mxCell>
        <mxCell id="FR0yReCO0dyW5Au92fSE-172" value="&lt;div style=&quot;line-height: 19px; white-space: pre;&quot;&gt;&lt;span&gt;&lt;b style=&quot;&quot;&gt;nombreCaracteristica_: &lt;/b&gt;&lt;span style=&quot;color: light-dark(rgb(0, 0, 0), rgb(255, 255, 255));&quot;&gt;texto&lt;/span&gt;&lt;/span&gt;&lt;/div&gt;&lt;div style=&quot;line-height: 19px; white-space: pre;&quot;&gt;&lt;span&gt;&lt;span style=&quot;color: light-dark(rgb(0, 0, 0), rgb(255, 255, 255));&quot;&gt;&lt;br&gt;&lt;/span&gt;&lt;/span&gt;&lt;/div&gt;&lt;div style=&quot;line-height: 19px; white-space: pre;&quot;&gt;&lt;span&gt;&lt;b style=&quot;&quot;&gt;props: &lt;/b&gt;numero N&lt;/span&gt;&lt;/div&gt;&lt;div style=&quot;line-height: 19px; white-space: pre;&quot;&gt;&lt;span&gt;&lt;br&gt;&lt;/span&gt;&lt;/div&gt;&lt;div style=&quot;line-height: 19px; white-space: pre;&quot;&gt;&lt;span&gt;&lt;b style=&quot;&quot;&gt;permisoRead: &lt;/b&gt;enumerado&lt;/span&gt;&lt;/div&gt;&lt;div style=&quot;line-height: 19px; white-space: pre;&quot;&gt;&lt;span&gt;&lt;br&gt;&lt;/span&gt;&lt;/div&gt;&lt;div style=&quot;line-height: 19px; white-space: pre;&quot;&gt;&lt;span&gt;&lt;b style=&quot;&quot;&gt;permisoWrite: &lt;/b&gt;enumerado&lt;/span&gt;&lt;/div&gt;&lt;div style=&quot;line-height: 19px; white-space: pre;&quot;&gt;&lt;span&gt;&lt;br&gt;&lt;/span&gt;&lt;/div&gt;&lt;div style=&quot;line-height: 19px; white-space: pre;&quot;&gt;&lt;span&gt;&lt;b style=&quot;&quot;&gt;tam:&lt;/b&gt; numero N&lt;/span&gt;&lt;/div&gt;" style="rounded=0;whiteSpace=wrap;html=1;fontSize=16;fontColor=default;fontFamily=Helvetica;" parent="1" vertex="1">
          <mxGeometry x="1490" y="405" width="250" height="245" as="geometry" />
        </mxCell>
        <mxCell id="FR0yReCO0dyW5Au92fSE-94" value="asignarPropiedades()" style="rounded=0;whiteSpace=wrap;html=1;fontSize=20;fontStyle=1" parent="1" vertex="1">
          <mxGeometry x="2140" y="611.25" width="242.5" height="50" as="geometry" />
        </mxCell>
        <mxCell id="FR0yReCO0dyW5Au92fSE-99" value="" style="endArrow=classic;html=1;rounded=0;fontFamily=Helvetica;fontSize=20;fontColor=default;" parent="1" edge="1">
          <mxGeometry relative="1" as="geometry">
            <mxPoint x="2380" y="634.71" as="sourcePoint" />
            <mxPoint x="2405" y="634.71" as="targetPoint" />
          </mxGeometry>
        </mxCell>
        <mxCell id="FR0yReCO0dyW5Au92fSE-100" value="" style="edgeLabel;resizable=0;html=1;;align=center;verticalAlign=middle;rounded=0;strokeColor=default;fontFamily=Helvetica;fontSize=20;fontColor=default;fillColor=default;" parent="FR0yReCO0dyW5Au92fSE-99" connectable="0" vertex="1">
          <mxGeometry relative="1" as="geometry" />
        </mxCell>
        <mxCell id="FR0yReCO0dyW5Au92fSE-179" style="edgeStyle=orthogonalEdgeStyle;rounded=0;orthogonalLoop=1;jettySize=auto;html=1;" parent="1" source="FR0yReCO0dyW5Au92fSE-176" target="FR0yReCO0dyW5Au92fSE-94" edge="1">
          <mxGeometry relative="1" as="geometry" />
        </mxCell>
        <mxCell id="FR0yReCO0dyW5Au92fSE-176" value="&lt;div style=&quot;line-height: 19px; white-space: pre;&quot;&gt;&lt;span&gt;&lt;b style=&quot;color: light-dark(rgb(0, 0, 0), rgb(255, 255, 255));&quot;&gt;props: &lt;/b&gt;&lt;span style=&quot;color: light-dark(rgb(0, 0, 0), rgb(255, 255, 255));&quot;&gt;numero N&lt;/span&gt;&lt;/span&gt;&lt;/div&gt;" style="rounded=0;whiteSpace=wrap;html=1;fontSize=16;fontColor=default;fontFamily=Helvetica;" parent="1" vertex="1">
          <mxGeometry x="1920" y="596.25" width="200" height="80" as="geometry" />
        </mxCell>
        <mxCell id="FR0yReCO0dyW5Au92fSE-180" value="asignarPermisos()" style="rounded=0;whiteSpace=wrap;html=1;fontSize=20;fontStyle=1" parent="1" vertex="1">
          <mxGeometry x="2145" y="793.75" width="242.5" height="50" as="geometry" />
        </mxCell>
        <mxCell id="FR0yReCO0dyW5Au92fSE-181" value="" style="endArrow=classic;html=1;rounded=0;fontFamily=Helvetica;fontSize=20;fontColor=default;" parent="1" edge="1">
          <mxGeometry relative="1" as="geometry">
            <mxPoint x="2385" y="817.21" as="sourcePoint" />
            <mxPoint x="2410" y="817.21" as="targetPoint" />
          </mxGeometry>
        </mxCell>
        <mxCell id="FR0yReCO0dyW5Au92fSE-182" value="" style="edgeLabel;resizable=0;html=1;;align=center;verticalAlign=middle;rounded=0;strokeColor=default;fontFamily=Helvetica;fontSize=20;fontColor=default;fillColor=default;" parent="FR0yReCO0dyW5Au92fSE-181" connectable="0" vertex="1">
          <mxGeometry relative="1" as="geometry" />
        </mxCell>
        <mxCell id="FR0yReCO0dyW5Au92fSE-186" style="edgeStyle=orthogonalEdgeStyle;rounded=0;orthogonalLoop=1;jettySize=auto;html=1;entryX=0;entryY=0.5;entryDx=0;entryDy=0;" parent="1" source="FR0yReCO0dyW5Au92fSE-185" target="FR0yReCO0dyW5Au92fSE-180" edge="1">
          <mxGeometry relative="1" as="geometry" />
        </mxCell>
        <mxCell id="FR0yReCO0dyW5Au92fSE-185" value="&lt;div style=&quot;line-height: 19px; white-space: pre;&quot;&gt;&lt;span&gt;&lt;b style=&quot;color: light-dark(rgb(0, 0, 0), rgb(255, 255, 255));&quot;&gt;permisoRead: &lt;/b&gt;&lt;span style=&quot;color: light-dark(rgb(0, 0, 0), rgb(255, 255, 255));&quot;&gt;enumerado&lt;/span&gt;&lt;/span&gt;&lt;/div&gt;&lt;div style=&quot;line-height: 19px; white-space: pre;&quot;&gt;&lt;span&gt;&lt;span style=&quot;color: light-dark(rgb(0, 0, 0), rgb(255, 255, 255));&quot;&gt;&lt;br&gt;&lt;/span&gt;&lt;/span&gt;&lt;/div&gt;&lt;div style=&quot;line-height: 19px; white-space: pre;&quot;&gt;&lt;span&gt;&lt;b style=&quot;&quot;&gt;permisoWrite: &lt;/b&gt;enumerado&lt;/span&gt;&lt;/div&gt;" style="rounded=0;whiteSpace=wrap;html=1;fontSize=16;fontColor=default;fontFamily=Helvetica;" parent="1" vertex="1">
          <mxGeometry x="1890" y="757.5" width="230" height="122.5" as="geometry" />
        </mxCell>
        <mxCell id="ihncpLz9qb66uBmkSJ_H-3" value="asignarTamanyoDatos()" style="rounded=0;whiteSpace=wrap;html=1;fontSize=20;fontStyle=1" parent="1" vertex="1">
          <mxGeometry x="2147.5" y="963.75" width="242.5" height="50" as="geometry" />
        </mxCell>
        <mxCell id="ihncpLz9qb66uBmkSJ_H-4" value="" style="endArrow=classic;html=1;rounded=0;fontFamily=Helvetica;fontSize=20;fontColor=default;" parent="1" edge="1">
          <mxGeometry relative="1" as="geometry">
            <mxPoint x="2387.5" y="987.21" as="sourcePoint" />
            <mxPoint x="2412.5" y="987.21" as="targetPoint" />
          </mxGeometry>
        </mxCell>
        <mxCell id="ihncpLz9qb66uBmkSJ_H-5" value="" style="edgeLabel;resizable=0;html=1;;align=center;verticalAlign=middle;rounded=0;strokeColor=default;fontFamily=Helvetica;fontSize=20;fontColor=default;fillColor=default;" parent="ihncpLz9qb66uBmkSJ_H-4" connectable="0" vertex="1">
          <mxGeometry relative="1" as="geometry" />
        </mxCell>
        <mxCell id="ihncpLz9qb66uBmkSJ_H-6" style="edgeStyle=orthogonalEdgeStyle;rounded=0;orthogonalLoop=1;jettySize=auto;html=1;entryX=0;entryY=0.5;entryDx=0;entryDy=0;" parent="1" source="ihncpLz9qb66uBmkSJ_H-7" target="ihncpLz9qb66uBmkSJ_H-3" edge="1">
          <mxGeometry relative="1" as="geometry" />
        </mxCell>
        <mxCell id="ihncpLz9qb66uBmkSJ_H-7" value="&lt;div style=&quot;line-height: 19px; white-space: pre;&quot;&gt;&lt;b style=&quot;color: light-dark(rgb(0, 0, 0), rgb(255, 255, 255));&quot;&gt;tam: numeros N&lt;/b&gt;&lt;/div&gt;" style="rounded=0;whiteSpace=wrap;html=1;fontSize=16;fontColor=default;fontFamily=Helvetica;" parent="1" vertex="1">
          <mxGeometry x="1890" y="962.5" width="230" height="52.5" as="geometry" />
        </mxCell>
        <mxCell id="ihncpLz9qb66uBmkSJ_H-8" value="asignarPropiedadesPermisosyTamanyoDatos()" style="rounded=0;whiteSpace=wrap;html=1;fontSize=20;fontStyle=1" parent="1" vertex="1">
          <mxGeometry x="1737.5" y="1103.75" width="482.5" height="50" as="geometry" />
        </mxCell>
        <mxCell id="ihncpLz9qb66uBmkSJ_H-13" style="edgeStyle=orthogonalEdgeStyle;rounded=0;orthogonalLoop=1;jettySize=auto;html=1;entryX=0.101;entryY=1.004;entryDx=0;entryDy=0;entryPerimeter=0;" parent="1" source="ihncpLz9qb66uBmkSJ_H-12" target="ihncpLz9qb66uBmkSJ_H-8" edge="1">
          <mxGeometry relative="1" as="geometry" />
        </mxCell>
        <mxCell id="ihncpLz9qb66uBmkSJ_H-12" value="&lt;div style=&quot;line-height: 19px; white-space: pre;&quot;&gt;&lt;b style=&quot;color: light-dark(rgb(0, 0, 0), rgb(255, 255, 255));&quot;&gt;props: numeros N&lt;/b&gt;&lt;/div&gt;&lt;div style=&quot;line-height: 19px; white-space: pre;&quot;&gt;&lt;b style=&quot;color: light-dark(rgb(0, 0, 0), rgb(255, 255, 255));&quot;&gt;&lt;br&gt;&lt;/b&gt;&lt;/div&gt;&lt;div style=&quot;line-height: 19px; white-space: pre;&quot;&gt;&lt;b style=&quot;color: light-dark(rgb(0, 0, 0), rgb(255, 255, 255));&quot;&gt;permisoRead: enumarado&lt;/b&gt;&lt;/div&gt;&lt;div style=&quot;line-height: 19px; white-space: pre;&quot;&gt;&lt;b style=&quot;color: light-dark(rgb(0, 0, 0), rgb(255, 255, 255));&quot;&gt;&lt;br&gt;&lt;/b&gt;&lt;/div&gt;&lt;div style=&quot;line-height: 19px; white-space: pre;&quot;&gt;&lt;b style=&quot;color: light-dark(rgb(0, 0, 0), rgb(255, 255, 255));&quot;&gt;permisoWrite: enumerado&lt;/b&gt;&lt;/div&gt;&lt;div style=&quot;line-height: 19px; white-space: pre;&quot;&gt;&lt;b style=&quot;color: light-dark(rgb(0, 0, 0), rgb(255, 255, 255));&quot;&gt;&lt;br&gt;&lt;/b&gt;&lt;/div&gt;&lt;div style=&quot;line-height: 19px; white-space: pre;&quot;&gt;&lt;b style=&quot;color: light-dark(rgb(0, 0, 0), rgb(255, 255, 255));&quot;&gt;tam: numeros&lt;/b&gt;&lt;/div&gt;" style="rounded=0;whiteSpace=wrap;html=1;fontSize=16;fontColor=default;fontFamily=Helvetica;" parent="1" vertex="1">
          <mxGeometry x="1480" y="1102.5" width="240" height="165" as="geometry" />
        </mxCell>
        <mxCell id="JTjQqQ8yrZWIEBTF-TQs-7" style="edgeStyle=orthogonalEdgeStyle;rounded=0;orthogonalLoop=1;jettySize=auto;html=1;" parent="1" source="ihncpLz9qb66uBmkSJ_H-14" edge="1">
          <mxGeometry relative="1" as="geometry">
            <mxPoint x="2044.9999999999982" y="1406.705882352941" as="targetPoint" />
          </mxGeometry>
        </mxCell>
        <mxCell id="JTjQqQ8yrZWIEBTF-TQs-24" style="edgeStyle=orthogonalEdgeStyle;rounded=0;orthogonalLoop=1;jettySize=auto;html=1;entryX=1;entryY=0.5;entryDx=0;entryDy=0;" parent="1" source="ihncpLz9qb66uBmkSJ_H-14" target="JTjQqQ8yrZWIEBTF-TQs-19" edge="1">
          <mxGeometry relative="1" as="geometry">
            <Array as="points">
              <mxPoint x="1820" y="1496" />
            </Array>
          </mxGeometry>
        </mxCell>
        <mxCell id="ihncpLz9qb66uBmkSJ_H-14" value="escribirDatos()" style="rounded=0;whiteSpace=wrap;html=1;fontSize=20;fontStyle=1" parent="1" vertex="1">
          <mxGeometry x="1752.5" y="1381" width="262.5" height="50" as="geometry" />
        </mxCell>
        <mxCell id="ihncpLz9qb66uBmkSJ_H-16" style="edgeStyle=orthogonalEdgeStyle;rounded=0;orthogonalLoop=1;jettySize=auto;html=1;" parent="1" source="ihncpLz9qb66uBmkSJ_H-15" target="ihncpLz9qb66uBmkSJ_H-14" edge="1">
          <mxGeometry relative="1" as="geometry" />
        </mxCell>
        <mxCell id="ihncpLz9qb66uBmkSJ_H-15" value="&lt;div style=&quot;line-height: 19px; white-space: pre;&quot;&gt;&lt;b style=&quot;color: light-dark(rgb(0, 0, 0), rgb(255, 255, 255));&quot;&gt;str: texto&lt;/b&gt;&lt;/div&gt;" style="rounded=0;whiteSpace=wrap;html=1;fontSize=16;fontColor=default;fontFamily=Helvetica;" parent="1" vertex="1">
          <mxGeometry x="1470" y="1380" width="230" height="52.5" as="geometry" />
        </mxCell>
        <mxCell id="JTjQqQ8yrZWIEBTF-TQs-8" style="edgeStyle=orthogonalEdgeStyle;rounded=0;orthogonalLoop=1;jettySize=auto;html=1;" parent="1" source="ihncpLz9qb66uBmkSJ_H-17" edge="1">
          <mxGeometry relative="1" as="geometry">
            <mxPoint x="2045" y="1586.249999999999" as="targetPoint" />
          </mxGeometry>
        </mxCell>
        <mxCell id="JTjQqQ8yrZWIEBTF-TQs-23" style="edgeStyle=orthogonalEdgeStyle;rounded=0;orthogonalLoop=1;jettySize=auto;html=1;entryX=1;entryY=0.5;entryDx=0;entryDy=0;" parent="1" source="ihncpLz9qb66uBmkSJ_H-17" target="JTjQqQ8yrZWIEBTF-TQs-21" edge="1">
          <mxGeometry relative="1" as="geometry">
            <Array as="points">
              <mxPoint x="1840" y="1686" />
            </Array>
          </mxGeometry>
        </mxCell>
        <mxCell id="ihncpLz9qb66uBmkSJ_H-17" value="notificarDatos()" style="rounded=0;whiteSpace=wrap;html=1;fontSize=20;fontStyle=1" parent="1" vertex="1">
          <mxGeometry x="1752.5" y="1561" width="262.5" height="50" as="geometry" />
        </mxCell>
        <mxCell id="ihncpLz9qb66uBmkSJ_H-18" style="edgeStyle=orthogonalEdgeStyle;rounded=0;orthogonalLoop=1;jettySize=auto;html=1;" parent="1" source="ihncpLz9qb66uBmkSJ_H-19" target="ihncpLz9qb66uBmkSJ_H-17" edge="1">
          <mxGeometry relative="1" as="geometry" />
        </mxCell>
        <mxCell id="ihncpLz9qb66uBmkSJ_H-19" value="&lt;div style=&quot;line-height: 19px; white-space: pre;&quot;&gt;&lt;b style=&quot;color: light-dark(rgb(0, 0, 0), rgb(255, 255, 255));&quot;&gt;str: texto&lt;/b&gt;&lt;/div&gt;" style="rounded=0;whiteSpace=wrap;html=1;fontSize=16;fontColor=default;fontFamily=Helvetica;" parent="1" vertex="1">
          <mxGeometry x="1470" y="1560" width="230" height="52.5" as="geometry" />
        </mxCell>
        <mxCell id="JTjQqQ8yrZWIEBTF-TQs-1" value="" style="endArrow=classic;html=1;rounded=0;fontFamily=Helvetica;fontSize=20;fontColor=default;" parent="1" edge="1">
          <mxGeometry relative="1" as="geometry">
            <mxPoint x="695" y="704.84" as="sourcePoint" />
            <mxPoint x="670" y="704.84" as="targetPoint" />
          </mxGeometry>
        </mxCell>
        <mxCell id="JTjQqQ8yrZWIEBTF-TQs-2" value="" style="edgeLabel;resizable=0;html=1;;align=center;verticalAlign=middle;rounded=0;strokeColor=default;fontFamily=Helvetica;fontSize=20;fontColor=default;fillColor=default;" parent="JTjQqQ8yrZWIEBTF-TQs-1" connectable="0" vertex="1">
          <mxGeometry relative="1" as="geometry" />
        </mxCell>
        <mxCell id="JTjQqQ8yrZWIEBTF-TQs-3" value="" style="endArrow=classic;html=1;rounded=0;fontFamily=Helvetica;fontSize=20;fontColor=default;" parent="1" edge="1">
          <mxGeometry relative="1" as="geometry">
            <mxPoint x="685" y="959.84" as="sourcePoint" />
            <mxPoint x="660" y="959.84" as="targetPoint" />
          </mxGeometry>
        </mxCell>
        <mxCell id="JTjQqQ8yrZWIEBTF-TQs-4" value="" style="edgeLabel;resizable=0;html=1;;align=center;verticalAlign=middle;rounded=0;strokeColor=default;fontFamily=Helvetica;fontSize=20;fontColor=default;fillColor=default;" parent="JTjQqQ8yrZWIEBTF-TQs-3" connectable="0" vertex="1">
          <mxGeometry relative="1" as="geometry" />
        </mxCell>
        <mxCell id="JTjQqQ8yrZWIEBTF-TQs-15" value="instalarCallbackCaracteristicaEscrita()" style="rounded=0;whiteSpace=wrap;html=1;fontSize=20;fontStyle=1" parent="1" vertex="1">
          <mxGeometry x="1752.5" y="1753" width="422.5" height="54.75" as="geometry" />
        </mxCell>
        <mxCell id="JTjQqQ8yrZWIEBTF-TQs-16" style="edgeStyle=orthogonalEdgeStyle;rounded=0;orthogonalLoop=1;jettySize=auto;html=1;" parent="1" source="JTjQqQ8yrZWIEBTF-TQs-17" target="JTjQqQ8yrZWIEBTF-TQs-15" edge="1">
          <mxGeometry relative="1" as="geometry" />
        </mxCell>
        <mxCell id="JTjQqQ8yrZWIEBTF-TQs-17" value="&lt;div style=&quot;line-height: 19px; white-space: pre;&quot;&gt;&lt;b style=&quot;color: light-dark(rgb(0, 0, 0), rgb(255, 255, 255));&quot;&gt;cb: funcion callback&lt;/b&gt;&lt;/div&gt;" style="rounded=0;whiteSpace=wrap;html=1;fontSize=16;fontColor=default;fontFamily=Helvetica;" parent="1" vertex="1">
          <mxGeometry x="1470" y="1753.75" width="230" height="52.5" as="geometry" />
        </mxCell>
        <mxCell id="JTjQqQ8yrZWIEBTF-TQs-18" value="activar()" style="rounded=0;whiteSpace=wrap;html=1;fontSize=20;fontStyle=1" parent="1" vertex="1">
          <mxGeometry x="1752.5" y="1880" width="262.5" height="50" as="geometry" />
        </mxCell>
        <mxCell id="JTjQqQ8yrZWIEBTF-TQs-19" value="&lt;div style=&quot;line-height: 19px; white-space: pre;&quot;&gt;&lt;b style=&quot;color: light-dark(rgb(0, 0, 0), rgb(255, 255, 255));&quot;&gt;numero N&lt;/b&gt;&lt;/div&gt;" style="rounded=0;whiteSpace=wrap;html=1;fontSize=16;fontColor=default;fontFamily=Helvetica;" parent="1" vertex="1">
          <mxGeometry x="1470" y="1470" width="230" height="52.5" as="geometry" />
        </mxCell>
        <mxCell id="JTjQqQ8yrZWIEBTF-TQs-21" value="&lt;div style=&quot;line-height: 19px; white-space: pre;&quot;&gt;&lt;b style=&quot;color: light-dark(rgb(0, 0, 0), rgb(255, 255, 255));&quot;&gt;numero N&lt;/b&gt;&lt;/div&gt;" style="rounded=0;whiteSpace=wrap;html=1;fontSize=16;fontColor=default;fontFamily=Helvetica;" parent="1" vertex="1">
          <mxGeometry x="1470" y="1660" width="230" height="52.5" as="geometry" />
        </mxCell>
        <mxCell id="JTjQqQ8yrZWIEBTF-TQs-25" style="edgeStyle=orthogonalEdgeStyle;rounded=0;orthogonalLoop=1;jettySize=auto;html=1;" parent="1" edge="1">
          <mxGeometry relative="1" as="geometry">
            <mxPoint x="2175" y="1777.5" as="sourcePoint" />
            <mxPoint x="2205" y="1777.749999999999" as="targetPoint" />
          </mxGeometry>
        </mxCell>
        <mxCell id="JTjQqQ8yrZWIEBTF-TQs-26" style="edgeStyle=orthogonalEdgeStyle;rounded=0;orthogonalLoop=1;jettySize=auto;html=1;" parent="1" edge="1">
          <mxGeometry relative="1" as="geometry">
            <mxPoint x="2014.99" y="1904.87" as="sourcePoint" />
            <mxPoint x="2044.99" y="1905.119999999999" as="targetPoint" />
          </mxGeometry>
        </mxCell>
        <mxCell id="JTjQqQ8yrZWIEBTF-TQs-28" value="&lt;b&gt;elServicio:&lt;/b&gt; BLEService&amp;nbsp;&lt;div&gt;&lt;br&gt;&lt;/div&gt;&lt;div&gt;&lt;b&gt;lasCaracteristicas&lt;/b&gt;: [ elementos ]&lt;/div&gt;" style="rounded=0;whiteSpace=wrap;html=1;fontSize=16;" parent="1" vertex="1">
          <mxGeometry x="2800" y="170" width="290" height="132.5" as="geometry" />
        </mxCell>
        <mxCell id="JTjQqQ8yrZWIEBTF-TQs-31" value="escribeUUID()" style="rounded=0;whiteSpace=wrap;html=1;fontSize=20;fontStyle=1" parent="1" vertex="1">
          <mxGeometry x="3135" y="510.62" width="230" height="40" as="geometry" />
        </mxCell>
        <mxCell id="JTjQqQ8yrZWIEBTF-TQs-32" value="" style="endArrow=classic;html=1;rounded=0;fontFamily=Helvetica;fontSize=20;fontColor=default;" parent="1" edge="1">
          <mxGeometry relative="1" as="geometry">
            <mxPoint x="3110" y="530.33" as="sourcePoint" />
            <mxPoint x="3135" y="530.33" as="targetPoint" />
          </mxGeometry>
        </mxCell>
        <mxCell id="JTjQqQ8yrZWIEBTF-TQs-33" value="" style="edgeLabel;resizable=0;html=1;;align=center;verticalAlign=middle;rounded=0;strokeColor=default;fontFamily=Helvetica;fontSize=20;fontColor=default;fillColor=default;" parent="JTjQqQ8yrZWIEBTF-TQs-32" connectable="0" vertex="1">
          <mxGeometry relative="1" as="geometry" />
        </mxCell>
        <mxCell id="JTjQqQ8yrZWIEBTF-TQs-40" value="anyadirCaracteristica()" style="rounded=0;whiteSpace=wrap;html=1;fontSize=20;fontStyle=1" parent="1" vertex="1">
          <mxGeometry x="3135" y="638.75" width="230" height="40" as="geometry" />
        </mxCell>
        <mxCell id="JTjQqQ8yrZWIEBTF-TQs-41" value="" style="endArrow=classic;html=1;rounded=0;fontFamily=Helvetica;fontSize=20;fontColor=default;" parent="1" edge="1">
          <mxGeometry relative="1" as="geometry">
            <mxPoint x="3135" y="658.46" as="sourcePoint" />
            <mxPoint x="3110" y="658.46" as="targetPoint" />
          </mxGeometry>
        </mxCell>
        <mxCell id="JTjQqQ8yrZWIEBTF-TQs-42" value="" style="edgeLabel;resizable=0;html=1;;align=center;verticalAlign=middle;rounded=0;strokeColor=default;fontFamily=Helvetica;fontSize=20;fontColor=default;fillColor=default;" parent="JTjQqQ8yrZWIEBTF-TQs-41" connectable="0" vertex="1">
          <mxGeometry relative="1" as="geometry" />
        </mxCell>
        <mxCell id="JTjQqQ8yrZWIEBTF-TQs-43" style="edgeStyle=orthogonalEdgeStyle;rounded=0;orthogonalLoop=1;jettySize=auto;html=1;" parent="1" source="JTjQqQ8yrZWIEBTF-TQs-44" target="JTjQqQ8yrZWIEBTF-TQs-40" edge="1">
          <mxGeometry relative="1" as="geometry" />
        </mxCell>
        <mxCell id="JTjQqQ8yrZWIEBTF-TQs-44" value="&lt;div style=&quot;line-height: 19px; white-space: pre;&quot;&gt;&lt;span&gt;&lt;b style=&quot;&quot;&gt;car: objeto &lt;/b&gt;(Caracteristica)&lt;/span&gt;&lt;/div&gt;" style="rounded=0;whiteSpace=wrap;html=1;fontSize=16;fontColor=default;fontFamily=Helvetica;" parent="1" vertex="1">
          <mxGeometry x="3410" y="634.38" width="240" height="48.75" as="geometry" />
        </mxCell>
        <mxCell id="JTjQqQ8yrZWIEBTF-TQs-45" value="activarServicio()" style="rounded=0;whiteSpace=wrap;html=1;fontSize=20;fontStyle=1" parent="1" vertex="1">
          <mxGeometry x="3135" y="774.37" width="230" height="40" as="geometry" />
        </mxCell>
        <mxCell id="JTjQqQ8yrZWIEBTF-TQs-46" value="" style="endArrow=classic;html=1;rounded=0;fontFamily=Helvetica;fontSize=20;fontColor=default;" parent="1" edge="1">
          <mxGeometry relative="1" as="geometry">
            <mxPoint x="3135" y="794.08" as="sourcePoint" />
            <mxPoint x="3110" y="794.08" as="targetPoint" />
          </mxGeometry>
        </mxCell>
        <mxCell id="JTjQqQ8yrZWIEBTF-TQs-47" value="" style="edgeLabel;resizable=0;html=1;;align=center;verticalAlign=middle;rounded=0;strokeColor=default;fontFamily=Helvetica;fontSize=20;fontColor=default;fillColor=default;" parent="JTjQqQ8yrZWIEBTF-TQs-46" connectable="0" vertex="1">
          <mxGeometry relative="1" as="geometry" />
        </mxCell>
        <mxCell id="JTjQqQ8yrZWIEBTF-TQs-50" value="operator BLEService &amp;amp;()" style="rounded=0;whiteSpace=wrap;html=1;fontSize=20;fontStyle=1" parent="1" vertex="1">
          <mxGeometry x="3100" y="940" width="265" height="41.87" as="geometry" />
        </mxCell>
        <mxCell id="JTjQqQ8yrZWIEBTF-TQs-53" style="edgeStyle=orthogonalEdgeStyle;rounded=0;orthogonalLoop=1;jettySize=auto;html=1;" parent="1" source="JTjQqQ8yrZWIEBTF-TQs-50" target="JTjQqQ8yrZWIEBTF-TQs-54" edge="1">
          <mxGeometry relative="1" as="geometry" />
        </mxCell>
        <mxCell id="JTjQqQ8yrZWIEBTF-TQs-54" value="&lt;div style=&quot;line-height: 19px; white-space: pre;&quot;&gt;&lt;span&gt;&lt;b style=&quot;&quot;&gt;objeto &lt;/b&gt;(BLES&lt;b style=&quot;&quot;&gt;ervice)&lt;/b&gt;&lt;/span&gt;&lt;/div&gt;" style="rounded=0;whiteSpace=wrap;html=1;fontSize=16;fontColor=default;fontFamily=Helvetica;" parent="1" vertex="1">
          <mxGeometry x="3410" y="936.5" width="240" height="48.75" as="geometry" />
        </mxCell>
        <mxCell id="FR0yReCO0dyW5Au92fSE-157" style="edgeStyle=orthogonalEdgeStyle;rounded=0;orthogonalLoop=1;jettySize=auto;html=1;entryX=0;entryY=0.5;entryDx=0;entryDy=0;" parent="1" edge="1">
          <mxGeometry relative="1" as="geometry">
            <mxPoint x="3212.5" y="-445" as="sourcePoint" />
          </mxGeometry>
        </mxCell>
        <mxCell id="FR0yReCO0dyW5Au92fSE-155" style="edgeStyle=orthogonalEdgeStyle;rounded=0;orthogonalLoop=1;jettySize=auto;html=1;entryX=0;entryY=0.5;entryDx=0;entryDy=0;" parent="1" edge="1">
          <mxGeometry relative="1" as="geometry">
            <mxPoint x="3012.5" y="-445" as="sourcePoint" />
          </mxGeometry>
        </mxCell>
        <mxCell id="FR0yReCO0dyW5Au92fSE-158" style="edgeStyle=orthogonalEdgeStyle;rounded=0;orthogonalLoop=1;jettySize=auto;html=1;entryX=0;entryY=0.5;entryDx=0;entryDy=0;" parent="1" edge="1">
          <mxGeometry relative="1" as="geometry">
            <mxPoint x="3302.5" y="-317.4000000000001" as="sourcePoint" />
          </mxGeometry>
        </mxCell>
        <mxCell id="FR0yReCO0dyW5Au92fSE-160" style="edgeStyle=orthogonalEdgeStyle;rounded=0;orthogonalLoop=1;jettySize=auto;html=1;entryX=0;entryY=0.5;entryDx=0;entryDy=0;" parent="1" edge="1">
          <mxGeometry relative="1" as="geometry">
            <mxPoint x="3002.5" y="-317.5" as="sourcePoint" />
          </mxGeometry>
        </mxCell>
        <mxCell id="vX9YrlGYbFmtOFFq3-KN-2" value="" style="rounded=0;whiteSpace=wrap;html=1;strokeColor=default;align=center;verticalAlign=middle;fontFamily=Helvetica;fontSize=20;fontColor=default;fillColor=default;" parent="1" vertex="1">
          <mxGeometry x="379.5" y="3643.25" width="1180" height="1079" as="geometry" />
        </mxCell>
        <mxCell id="vX9YrlGYbFmtOFFq3-KN-3" value="Clase MainActivity" style="text;html=1;align=center;verticalAlign=middle;whiteSpace=wrap;rounded=0;fontSize=28;fontStyle=1" parent="1" vertex="1">
          <mxGeometry x="849.5" y="3643.25" width="335" height="90" as="geometry" />
        </mxCell>
        <mxCell id="vX9YrlGYbFmtOFFq3-KN-19" value="&lt;font&gt;buscarTodosLosDispositivosBTLE()&lt;/font&gt;" style="rounded=0;whiteSpace=wrap;html=1;fontSize=20;fontStyle=1" parent="1" vertex="1">
          <mxGeometry x="823.25" y="4079.75" width="364" height="45" as="geometry" />
        </mxCell>
        <mxCell id="vX9YrlGYbFmtOFFq3-KN-20" value="botonBuscarDispositivosBTLEPulsado()" style="rounded=0;whiteSpace=wrap;html=1;fontSize=20;fontStyle=1" parent="1" vertex="1">
          <mxGeometry x="289.5" y="3837.25" width="432.25" height="50" as="geometry" />
        </mxCell>
        <mxCell id="vX9YrlGYbFmtOFFq3-KN-21" style="edgeStyle=orthogonalEdgeStyle;rounded=0;orthogonalLoop=1;jettySize=auto;html=1;entryX=0;entryY=0.5;entryDx=0;entryDy=0;fontFamily=Helvetica;fontSize=20;fontColor=default;" parent="1" source="vX9YrlGYbFmtOFFq3-KN-22" target="vX9YrlGYbFmtOFFq3-KN-20" edge="1">
          <mxGeometry relative="1" as="geometry" />
        </mxCell>
        <mxCell id="vX9YrlGYbFmtOFFq3-KN-22" value="&lt;div style=&quot;line-height: 19px; white-space: pre;&quot;&gt;&lt;span&gt;&lt;b style=&quot;&quot;&gt;v:&lt;/b&gt; View&lt;/span&gt;&lt;/div&gt;" style="rounded=0;whiteSpace=wrap;html=1;fontSize=16;fontColor=default;fontFamily=Helvetica;" parent="1" vertex="1">
          <mxGeometry x="10.819999999999993" y="3846" width="220" height="32.5" as="geometry" />
        </mxCell>
        <mxCell id="vX9YrlGYbFmtOFFq3-KN-25" value="" style="endArrow=classic;html=1;rounded=0;fontFamily=Helvetica;fontSize=20;fontColor=default;" parent="1" edge="1">
          <mxGeometry relative="1" as="geometry">
            <mxPoint x="721.75" y="3861.96" as="sourcePoint" />
            <mxPoint x="746.75" y="3861.96" as="targetPoint" />
          </mxGeometry>
        </mxCell>
        <mxCell id="vX9YrlGYbFmtOFFq3-KN-26" value="" style="edgeLabel;resizable=0;html=1;;align=center;verticalAlign=middle;rounded=0;strokeColor=default;fontFamily=Helvetica;fontSize=20;fontColor=default;fillColor=default;" parent="vX9YrlGYbFmtOFFq3-KN-25" connectable="0" vertex="1">
          <mxGeometry relative="1" as="geometry" />
        </mxCell>
        <mxCell id="vX9YrlGYbFmtOFFq3-KN-76" value="&lt;b&gt;ETIQUETA_LOG&lt;/b&gt;: texto&amp;nbsp;&lt;div&gt;&lt;br&gt;&lt;/div&gt;&lt;div&gt;&lt;b&gt;CODIGO_PETICION_PERMISOS&lt;/b&gt;: numero N&lt;/div&gt;&lt;div&gt;&lt;br&gt;&lt;/div&gt;&lt;div&gt;&lt;b&gt;FIrebaseManager&lt;/b&gt;: firebaseManager (objeto)&lt;/div&gt;&lt;div&gt;&lt;br&gt;&lt;/div&gt;&lt;div&gt;&lt;b&gt;elEscanner:&lt;/b&gt;&amp;nbsp;BluetoothLeScanner (objeto)&lt;/div&gt;&lt;div&gt;&lt;br&gt;&lt;/div&gt;&lt;div&gt;&lt;b&gt;callbackDelEscaneo:&lt;/b&gt;&amp;nbsp;ScanCallback&amp;nbsp;(objeto)&lt;/div&gt;" style="rounded=0;whiteSpace=wrap;html=1;fontSize=16;" parent="1" vertex="1">
          <mxGeometry x="823.25" y="3777.25" width="364" height="255" as="geometry" />
        </mxCell>
        <mxCell id="vX9YrlGYbFmtOFFq3-KN-77" value="" style="rounded=0;whiteSpace=wrap;html=1;strokeColor=default;align=center;verticalAlign=middle;fontFamily=Helvetica;fontSize=20;fontColor=default;fillColor=default;" parent="1" vertex="1">
          <mxGeometry x="-1132.5" y="3495" width="620" height="1668" as="geometry" />
        </mxCell>
        <mxCell id="vX9YrlGYbFmtOFFq3-KN-78" value="Clase Ultilidades" style="text;html=1;align=center;verticalAlign=middle;whiteSpace=wrap;rounded=0;fontSize=28;fontStyle=1" parent="1" vertex="1">
          <mxGeometry x="-954.3699999999999" y="3495" width="283.75" height="92" as="geometry" />
        </mxCell>
        <mxCell id="vX9YrlGYbFmtOFFq3-KN-327" style="edgeStyle=orthogonalEdgeStyle;rounded=0;orthogonalLoop=1;jettySize=auto;html=1;entryX=1;entryY=0.5;entryDx=0;entryDy=0;" parent="1" source="vX9YrlGYbFmtOFFq3-KN-82" target="vX9YrlGYbFmtOFFq3-KN-326" edge="1">
          <mxGeometry relative="1" as="geometry">
            <Array as="points">
              <mxPoint x="-1162.5" y="3691" />
            </Array>
          </mxGeometry>
        </mxCell>
        <mxCell id="vX9YrlGYbFmtOFFq3-KN-82" value="&lt;font&gt;stringToBytes()&lt;/font&gt;" style="rounded=0;whiteSpace=wrap;html=1;fontSize=20;fontStyle=1" parent="1" vertex="1">
          <mxGeometry x="-1212.5" y="3575" width="160" height="45" as="geometry" />
        </mxCell>
        <mxCell id="vX9YrlGYbFmtOFFq3-KN-95" style="edgeStyle=orthogonalEdgeStyle;rounded=0;orthogonalLoop=1;jettySize=auto;html=1;entryX=0;entryY=0.5;entryDx=0;entryDy=0;fontFamily=Helvetica;fontSize=20;fontColor=default;" parent="1" source="vX9YrlGYbFmtOFFq3-KN-96" target="vX9YrlGYbFmtOFFq3-KN-82" edge="1">
          <mxGeometry relative="1" as="geometry" />
        </mxCell>
        <mxCell id="vX9YrlGYbFmtOFFq3-KN-96" value="&lt;b&gt;texto: &lt;/b&gt;texto" style="rounded=0;whiteSpace=wrap;html=1;fontSize=16;" parent="1" vertex="1">
          <mxGeometry x="-1512.5" y="3575" width="242.5" height="43.75" as="geometry" />
        </mxCell>
        <mxCell id="vX9YrlGYbFmtOFFq3-KN-145" value="Telefono" style="text;html=1;align=center;verticalAlign=middle;whiteSpace=wrap;rounded=0;fontSize=150;fontStyle=1;fontColor=default;labelBackgroundColor=none;" parent="1" vertex="1">
          <mxGeometry x="553.75" y="3169" width="1347.5" height="220" as="geometry" />
        </mxCell>
        <mxCell id="vX9YrlGYbFmtOFFq3-KN-157" value="" style="rounded=0;whiteSpace=wrap;html=1;convertToSvg=0;" parent="1" vertex="1">
          <mxGeometry x="2007.5" y="3589" width="860" height="1480" as="geometry" />
        </mxCell>
        <mxCell id="vX9YrlGYbFmtOFFq3-KN-158" value="Clase TramaIBeacon" style="text;html=1;align=center;verticalAlign=middle;whiteSpace=wrap;rounded=0;fontSize=28;fontStyle=1" parent="1" vertex="1">
          <mxGeometry x="2277.5" y="3589" width="335" height="90" as="geometry" />
        </mxCell>
        <mxCell id="vX9YrlGYbFmtOFFq3-KN-159" value="&lt;b&gt;prefijo&lt;/b&gt;: [ bytes ]&lt;div&gt;&lt;br&gt;&lt;/div&gt;&lt;div&gt;&lt;span style=&quot;background-color: transparent; color: light-dark(rgb(0, 0, 0), rgb(255, 255, 255));&quot;&gt;&lt;b&gt;uuid&lt;/b&gt;: [ bytes ]&lt;/span&gt;&lt;/div&gt;&lt;div&gt;&lt;br&gt;&lt;/div&gt;&lt;div&gt;&lt;span style=&quot;background-color: transparent; color: light-dark(rgb(0, 0, 0), rgb(255, 255, 255));&quot;&gt;&lt;b&gt;major&lt;/b&gt;: [ bytes ]&lt;/span&gt;&lt;/div&gt;&lt;div&gt;&lt;br&gt;&lt;/div&gt;&lt;div&gt;&lt;span style=&quot;background-color: transparent; color: light-dark(rgb(0, 0, 0), rgb(255, 255, 255));&quot;&gt;&lt;b&gt;minor&lt;/b&gt;: [ bytes ]&lt;/span&gt;&lt;/div&gt;&lt;div&gt;&lt;br&gt;&lt;/div&gt;&lt;div&gt;&lt;span style=&quot;background-color: transparent; color: light-dark(rgb(0, 0, 0), rgb(255, 255, 255));&quot;&gt;&lt;b&gt;txPower&lt;/b&gt;: [ bytes ]&lt;/span&gt;&lt;/div&gt;&lt;div&gt;&lt;br&gt;&lt;/div&gt;&lt;div&gt;&lt;span style=&quot;background-color: transparent; color: light-dark(rgb(0, 0, 0), rgb(255, 255, 255));&quot;&gt;&lt;b&gt;losBytes&lt;/b&gt;: [ bytes ]&lt;/span&gt;&lt;/div&gt;&lt;div&gt;&lt;span style=&quot;background-color: transparent; color: light-dark(rgb(0, 0, 0), rgb(255, 255, 255));&quot;&gt;&lt;br&gt;&lt;/span&gt;&lt;/div&gt;&lt;div&gt;&lt;br&gt;&lt;/div&gt;&lt;div&gt;&lt;b&gt;advFlags&lt;/b&gt;: [ bytes ]&lt;/div&gt;&lt;div&gt;&lt;br&gt;&lt;/div&gt;&lt;div&gt;&lt;b&gt;advHeader&lt;/b&gt;: [ bytes ]&lt;/div&gt;&lt;div&gt;&lt;br&gt;&lt;/div&gt;&lt;div&gt;&lt;b&gt;companyID&lt;/b&gt;: [ bytes ]&lt;/div&gt;&lt;div&gt;&lt;br&gt;&lt;/div&gt;&lt;div&gt;&lt;b&gt;iBeaconType&lt;/b&gt;: byte&lt;/div&gt;&lt;div&gt;&lt;br&gt;&lt;/div&gt;&lt;div&gt;&lt;b&gt;iBeaconLength&lt;/b&gt;: byte&lt;/div&gt;&lt;div&gt;&lt;br&gt;&lt;/div&gt;" style="rounded=0;whiteSpace=wrap;html=1;fontSize=16;" parent="1" vertex="1">
          <mxGeometry x="2192.5" y="3754" width="315" height="495" as="geometry" />
        </mxCell>
        <mxCell id="vX9YrlGYbFmtOFFq3-KN-160" value="TramaIBeacon()" style="rounded=0;whiteSpace=wrap;html=1;fontSize=20;fontStyle=1" parent="1" vertex="1">
          <mxGeometry x="1910" y="3754" width="200" height="50" as="geometry" />
        </mxCell>
        <mxCell id="vX9YrlGYbFmtOFFq3-KN-161" value="" style="endArrow=classic;html=1;rounded=0;fontFamily=Helvetica;fontSize=20;fontColor=default;" parent="1" edge="1">
          <mxGeometry relative="1" as="geometry">
            <mxPoint x="2110" y="3778.8" as="sourcePoint" />
            <mxPoint x="2135" y="3778.8" as="targetPoint" />
          </mxGeometry>
        </mxCell>
        <mxCell id="vX9YrlGYbFmtOFFq3-KN-162" value="" style="edgeLabel;resizable=0;html=1;;align=center;verticalAlign=middle;rounded=0;strokeColor=default;fontFamily=Helvetica;fontSize=20;fontColor=default;fillColor=default;" parent="vX9YrlGYbFmtOFFq3-KN-161" connectable="0" vertex="1">
          <mxGeometry relative="1" as="geometry" />
        </mxCell>
        <mxCell id="vX9YrlGYbFmtOFFq3-KN-163" style="edgeStyle=orthogonalEdgeStyle;rounded=0;orthogonalLoop=1;jettySize=auto;html=1;entryX=0;entryY=0.5;entryDx=0;entryDy=0;" parent="1" source="vX9YrlGYbFmtOFFq3-KN-164" target="vX9YrlGYbFmtOFFq3-KN-160" edge="1">
          <mxGeometry relative="1" as="geometry" />
        </mxCell>
        <mxCell id="vX9YrlGYbFmtOFFq3-KN-164" value="&lt;div style=&quot;line-height: 19px; white-space: pre;&quot;&gt;&lt;span&gt;&lt;b style=&quot;&quot;&gt;bytes: &lt;/b&gt;&lt;span style=&quot;color: light-dark(rgb(0, 0, 0), rgb(255, 255, 255));&quot;&gt;[ bytes ]&lt;/span&gt;&lt;/span&gt;&lt;/div&gt;" style="rounded=0;whiteSpace=wrap;html=1;fontSize=16;fontColor=default;fontFamily=Helvetica;" parent="1" vertex="1">
          <mxGeometry x="1727.5" y="3752.75" width="145" height="52.5" as="geometry" />
        </mxCell>
        <mxCell id="vX9YrlGYbFmtOFFq3-KN-168" style="edgeStyle=orthogonalEdgeStyle;rounded=0;orthogonalLoop=1;jettySize=auto;html=1;entryX=0.25;entryY=1;entryDx=0;entryDy=0;" parent="1" edge="1">
          <mxGeometry relative="1" as="geometry">
            <mxPoint x="1760" y="4555.076923076923" as="sourcePoint" />
          </mxGeometry>
        </mxCell>
        <mxCell id="vX9YrlGYbFmtOFFq3-KN-240" value="&lt;font&gt;inicializarBlueTooth()&lt;/font&gt;" style="rounded=0;whiteSpace=wrap;html=1;fontSize=20;fontStyle=1" parent="1" vertex="1">
          <mxGeometry x="820.5" y="4512.25" width="364" height="45" as="geometry" />
        </mxCell>
        <mxCell id="vX9YrlGYbFmtOFFq3-KN-241" value="&lt;font&gt;mostrarInformacionDispositivoBTLE()&lt;/font&gt;" style="rounded=0;whiteSpace=wrap;html=1;fontSize=20;fontStyle=1" parent="1" vertex="1">
          <mxGeometry x="819.5" y="4162.25" width="367.75" height="51.25" as="geometry" />
        </mxCell>
        <mxCell id="vX9YrlGYbFmtOFFq3-KN-242" value="&lt;font&gt;buscarEsteDispositivoBTLE()&lt;/font&gt;" style="rounded=0;whiteSpace=wrap;html=1;fontSize=20;fontStyle=1" parent="1" vertex="1">
          <mxGeometry x="819.5" y="4269.25" width="367.75" height="51.25" as="geometry" />
        </mxCell>
        <mxCell id="vX9YrlGYbFmtOFFq3-KN-389" style="edgeStyle=orthogonalEdgeStyle;rounded=0;orthogonalLoop=1;jettySize=auto;html=1;" parent="1" source="vX9YrlGYbFmtOFFq3-KN-243" target="vX9YrlGYbFmtOFFq3-KN-242" edge="1">
          <mxGeometry relative="1" as="geometry" />
        </mxCell>
        <mxCell id="vX9YrlGYbFmtOFFq3-KN-243" value="&lt;div style=&quot;line-height: 19px; white-space: pre;&quot;&gt;&lt;b&gt;dispositivoBuscado: texto&lt;/b&gt;&lt;/div&gt;" style="rounded=0;whiteSpace=wrap;html=1;fontSize=16;fontColor=default;fontFamily=Helvetica;" parent="1" vertex="1">
          <mxGeometry x="559.5" y="4252.37" width="230" height="85" as="geometry" />
        </mxCell>
        <mxCell id="vX9YrlGYbFmtOFFq3-KN-245" value="&lt;font&gt;detenerBusquedaDispositivoBTLE()&lt;/font&gt;" style="rounded=0;whiteSpace=wrap;html=1;fontSize=20;fontStyle=1" parent="1" vertex="1">
          <mxGeometry x="819.5" y="4390.63" width="367.75" height="51.25" as="geometry" />
        </mxCell>
        <mxCell id="vX9YrlGYbFmtOFFq3-KN-253" value="botonBuscarNuestroDispositivosBTLEPulsado()" style="rounded=0;whiteSpace=wrap;html=1;fontSize=20;fontStyle=1" parent="1" vertex="1">
          <mxGeometry x="249.5" y="3952.25" width="472.25" height="50" as="geometry" />
        </mxCell>
        <mxCell id="vX9YrlGYbFmtOFFq3-KN-254" style="edgeStyle=orthogonalEdgeStyle;rounded=0;orthogonalLoop=1;jettySize=auto;html=1;entryX=0;entryY=0.5;entryDx=0;entryDy=0;fontFamily=Helvetica;fontSize=20;fontColor=default;" parent="1" source="vX9YrlGYbFmtOFFq3-KN-255" target="vX9YrlGYbFmtOFFq3-KN-253" edge="1">
          <mxGeometry relative="1" as="geometry" />
        </mxCell>
        <mxCell id="vX9YrlGYbFmtOFFq3-KN-255" value="&lt;div style=&quot;line-height: 19px; white-space: pre;&quot;&gt;&lt;span&gt;&lt;b style=&quot;&quot;&gt;v:&lt;/b&gt; View&lt;/span&gt;&lt;/div&gt;" style="rounded=0;whiteSpace=wrap;html=1;fontSize=16;fontColor=default;fontFamily=Helvetica;" parent="1" vertex="1">
          <mxGeometry x="-20.499999999999886" y="3961" width="220" height="32.5" as="geometry" />
        </mxCell>
        <mxCell id="vX9YrlGYbFmtOFFq3-KN-256" value="" style="endArrow=classic;html=1;rounded=0;fontFamily=Helvetica;fontSize=20;fontColor=default;" parent="1" edge="1">
          <mxGeometry relative="1" as="geometry">
            <mxPoint x="721.7500000000001" y="3976.96" as="sourcePoint" />
            <mxPoint x="746.75" y="3976.96" as="targetPoint" />
          </mxGeometry>
        </mxCell>
        <mxCell id="vX9YrlGYbFmtOFFq3-KN-257" value="" style="edgeLabel;resizable=0;html=1;;align=center;verticalAlign=middle;rounded=0;strokeColor=default;fontFamily=Helvetica;fontSize=20;fontColor=default;fillColor=default;" parent="vX9YrlGYbFmtOFFq3-KN-256" connectable="0" vertex="1">
          <mxGeometry relative="1" as="geometry" />
        </mxCell>
        <mxCell id="vX9YrlGYbFmtOFFq3-KN-258" value="botonDetenerBusquedaDispositivosBTLEPulsado()" style="rounded=0;whiteSpace=wrap;html=1;fontSize=20;fontStyle=1" parent="1" vertex="1">
          <mxGeometry x="219.5" y="4062.25" width="502.25" height="50" as="geometry" />
        </mxCell>
        <mxCell id="vX9YrlGYbFmtOFFq3-KN-259" style="edgeStyle=orthogonalEdgeStyle;rounded=0;orthogonalLoop=1;jettySize=auto;html=1;entryX=0;entryY=0.5;entryDx=0;entryDy=0;fontFamily=Helvetica;fontSize=20;fontColor=default;" parent="1" source="vX9YrlGYbFmtOFFq3-KN-260" target="vX9YrlGYbFmtOFFq3-KN-258" edge="1">
          <mxGeometry relative="1" as="geometry" />
        </mxCell>
        <mxCell id="vX9YrlGYbFmtOFFq3-KN-260" value="&lt;div style=&quot;line-height: 19px; white-space: pre;&quot;&gt;&lt;span&gt;&lt;b style=&quot;&quot;&gt;v:&lt;/b&gt; View&lt;/span&gt;&lt;/div&gt;" style="rounded=0;whiteSpace=wrap;html=1;fontSize=16;fontColor=default;fontFamily=Helvetica;" parent="1" vertex="1">
          <mxGeometry x="-34.5" y="4071" width="220" height="32.5" as="geometry" />
        </mxCell>
        <mxCell id="vX9YrlGYbFmtOFFq3-KN-261" value="" style="endArrow=classic;html=1;rounded=0;fontFamily=Helvetica;fontSize=20;fontColor=default;" parent="1" edge="1">
          <mxGeometry relative="1" as="geometry">
            <mxPoint x="721.75" y="4086.96" as="sourcePoint" />
            <mxPoint x="746.75" y="4086.96" as="targetPoint" />
          </mxGeometry>
        </mxCell>
        <mxCell id="vX9YrlGYbFmtOFFq3-KN-262" value="" style="edgeLabel;resizable=0;html=1;;align=center;verticalAlign=middle;rounded=0;strokeColor=default;fontFamily=Helvetica;fontSize=20;fontColor=default;fillColor=default;" parent="vX9YrlGYbFmtOFFq3-KN-261" connectable="0" vertex="1">
          <mxGeometry relative="1" as="geometry" />
        </mxCell>
        <mxCell id="vX9YrlGYbFmtOFFq3-KN-263" value="&lt;font&gt;onCreate()&lt;/font&gt;" style="rounded=0;whiteSpace=wrap;html=1;fontSize=20;fontStyle=1" parent="1" vertex="1">
          <mxGeometry x="823.25" y="4613.16" width="364" height="45" as="geometry" />
        </mxCell>
        <mxCell id="vX9YrlGYbFmtOFFq3-KN-264" value="&lt;font&gt;onRequestPermissionResult()&lt;/font&gt;" style="rounded=0;whiteSpace=wrap;html=1;fontSize=20;fontStyle=1" parent="1" vertex="1">
          <mxGeometry x="230.5" y="4508.75" width="364" height="45" as="geometry" />
        </mxCell>
        <mxCell id="vX9YrlGYbFmtOFFq3-KN-266" style="edgeStyle=orthogonalEdgeStyle;rounded=0;orthogonalLoop=1;jettySize=auto;html=1;entryX=0;entryY=0.5;entryDx=0;entryDy=0;" parent="1" source="vX9YrlGYbFmtOFFq3-KN-265" target="vX9YrlGYbFmtOFFq3-KN-264" edge="1">
          <mxGeometry relative="1" as="geometry" />
        </mxCell>
        <mxCell id="vX9YrlGYbFmtOFFq3-KN-265" value="&lt;div style=&quot;line-height: 19px; white-space: pre;&quot;&gt;&lt;div style=&quot;font-size: 14px; line-height: 19px;&quot;&gt;&lt;span&gt;&lt;b style=&quot;&quot;&gt;requestCode: &lt;/b&gt;numero N&lt;/span&gt;&lt;/div&gt;&lt;div style=&quot;font-size: 14px; line-height: 19px;&quot;&gt;&lt;span&gt;&lt;br&gt;&lt;/span&gt;&lt;/div&gt;&lt;div style=&quot;font-size: 14px; line-height: 19px;&quot;&gt;&lt;div style=&quot;line-height: 19px;&quot;&gt;&lt;span&gt;&lt;b style=&quot;&quot;&gt;permissions: &lt;/b&gt;[ texto ]&lt;/span&gt;&lt;/div&gt;&lt;div style=&quot;line-height: 19px;&quot;&gt;&lt;span&gt;&lt;br&gt;&lt;/span&gt;&lt;/div&gt;&lt;div style=&quot;line-height: 19px;&quot;&gt;&lt;div style=&quot;line-height: 19px;&quot;&gt;&lt;span&gt;&lt;b style=&quot;&quot;&gt;grantResults &lt;/b&gt;[ numeros N ]&lt;/span&gt;&lt;/div&gt;&lt;/div&gt;&lt;/div&gt;&lt;/div&gt;" style="rounded=0;whiteSpace=wrap;html=1;fontSize=16;fontColor=default;fontFamily=Helvetica;" parent="1" vertex="1">
          <mxGeometry x="-44.5" y="4453.25" width="230" height="156" as="geometry" />
        </mxCell>
        <mxCell id="vX9YrlGYbFmtOFFq3-KN-272" style="edgeStyle=orthogonalEdgeStyle;rounded=0;orthogonalLoop=1;jettySize=auto;html=1;entryX=1;entryY=0.5;entryDx=0;entryDy=0;" parent="1" source="vX9YrlGYbFmtOFFq3-KN-267" target="vX9YrlGYbFmtOFFq3-KN-271" edge="1">
          <mxGeometry relative="1" as="geometry" />
        </mxCell>
        <mxCell id="vX9YrlGYbFmtOFFq3-KN-267" value="getPrefijo()" style="rounded=0;whiteSpace=wrap;html=1;fontSize=20;fontStyle=1" parent="1" vertex="1">
          <mxGeometry x="1907.5" y="3876.5" width="200" height="50" as="geometry" />
        </mxCell>
        <mxCell id="vX9YrlGYbFmtOFFq3-KN-268" value="" style="endArrow=classic;html=1;rounded=0;fontFamily=Helvetica;fontSize=20;fontColor=default;" parent="1" edge="1">
          <mxGeometry relative="1" as="geometry">
            <mxPoint x="2132.5" y="3901.3" as="sourcePoint" />
            <mxPoint x="2107.5" y="3901.3" as="targetPoint" />
          </mxGeometry>
        </mxCell>
        <mxCell id="vX9YrlGYbFmtOFFq3-KN-269" value="" style="edgeLabel;resizable=0;html=1;;align=center;verticalAlign=middle;rounded=0;strokeColor=default;fontFamily=Helvetica;fontSize=20;fontColor=default;fillColor=default;" parent="vX9YrlGYbFmtOFFq3-KN-268" connectable="0" vertex="1">
          <mxGeometry relative="1" as="geometry" />
        </mxCell>
        <mxCell id="vX9YrlGYbFmtOFFq3-KN-271" value="&lt;div style=&quot;line-height: 19px; white-space: pre;&quot;&gt;&lt;span&gt;[ bytes ]&lt;/span&gt;&lt;/div&gt;" style="rounded=0;whiteSpace=wrap;html=1;fontSize=16;fontColor=default;fontFamily=Helvetica;" parent="1" vertex="1">
          <mxGeometry x="1725" y="3875.25" width="145" height="52.5" as="geometry" />
        </mxCell>
        <mxCell id="vX9YrlGYbFmtOFFq3-KN-273" style="edgeStyle=orthogonalEdgeStyle;rounded=0;orthogonalLoop=1;jettySize=auto;html=1;entryX=1;entryY=0.5;entryDx=0;entryDy=0;" parent="1" source="vX9YrlGYbFmtOFFq3-KN-274" target="vX9YrlGYbFmtOFFq3-KN-277" edge="1">
          <mxGeometry relative="1" as="geometry" />
        </mxCell>
        <mxCell id="vX9YrlGYbFmtOFFq3-KN-274" value="getUUID()" style="rounded=0;whiteSpace=wrap;html=1;fontSize=20;fontStyle=1" parent="1" vertex="1">
          <mxGeometry x="1910" y="3985.87" width="200" height="50" as="geometry" />
        </mxCell>
        <mxCell id="vX9YrlGYbFmtOFFq3-KN-275" value="" style="endArrow=classic;html=1;rounded=0;fontFamily=Helvetica;fontSize=20;fontColor=default;" parent="1" edge="1">
          <mxGeometry relative="1" as="geometry">
            <mxPoint x="2135" y="4010.67" as="sourcePoint" />
            <mxPoint x="2110" y="4010.67" as="targetPoint" />
          </mxGeometry>
        </mxCell>
        <mxCell id="vX9YrlGYbFmtOFFq3-KN-276" value="" style="edgeLabel;resizable=0;html=1;;align=center;verticalAlign=middle;rounded=0;strokeColor=default;fontFamily=Helvetica;fontSize=20;fontColor=default;fillColor=default;" parent="vX9YrlGYbFmtOFFq3-KN-275" connectable="0" vertex="1">
          <mxGeometry relative="1" as="geometry" />
        </mxCell>
        <mxCell id="vX9YrlGYbFmtOFFq3-KN-277" value="&lt;div style=&quot;line-height: 19px; white-space: pre;&quot;&gt;&lt;span&gt;[ bytes ]&lt;/span&gt;&lt;/div&gt;" style="rounded=0;whiteSpace=wrap;html=1;fontSize=16;fontColor=default;fontFamily=Helvetica;" parent="1" vertex="1">
          <mxGeometry x="1727.5" y="3984.62" width="145" height="52.5" as="geometry" />
        </mxCell>
        <mxCell id="vX9YrlGYbFmtOFFq3-KN-278" style="edgeStyle=orthogonalEdgeStyle;rounded=0;orthogonalLoop=1;jettySize=auto;html=1;entryX=1;entryY=0.5;entryDx=0;entryDy=0;" parent="1" source="vX9YrlGYbFmtOFFq3-KN-279" target="vX9YrlGYbFmtOFFq3-KN-282" edge="1">
          <mxGeometry relative="1" as="geometry" />
        </mxCell>
        <mxCell id="vX9YrlGYbFmtOFFq3-KN-279" value="getMajor()" style="rounded=0;whiteSpace=wrap;html=1;fontSize=20;fontStyle=1" parent="1" vertex="1">
          <mxGeometry x="1907.5" y="4097.55" width="200" height="50" as="geometry" />
        </mxCell>
        <mxCell id="vX9YrlGYbFmtOFFq3-KN-280" value="" style="endArrow=classic;html=1;rounded=0;fontFamily=Helvetica;fontSize=20;fontColor=default;" parent="1" edge="1">
          <mxGeometry relative="1" as="geometry">
            <mxPoint x="2132.5" y="4122.35" as="sourcePoint" />
            <mxPoint x="2107.5" y="4122.35" as="targetPoint" />
          </mxGeometry>
        </mxCell>
        <mxCell id="vX9YrlGYbFmtOFFq3-KN-281" value="" style="edgeLabel;resizable=0;html=1;;align=center;verticalAlign=middle;rounded=0;strokeColor=default;fontFamily=Helvetica;fontSize=20;fontColor=default;fillColor=default;" parent="vX9YrlGYbFmtOFFq3-KN-280" connectable="0" vertex="1">
          <mxGeometry relative="1" as="geometry" />
        </mxCell>
        <mxCell id="vX9YrlGYbFmtOFFq3-KN-282" value="&lt;div style=&quot;line-height: 19px; white-space: pre;&quot;&gt;&lt;span&gt;[ bytes ]&lt;/span&gt;&lt;/div&gt;" style="rounded=0;whiteSpace=wrap;html=1;fontSize=16;fontColor=default;fontFamily=Helvetica;" parent="1" vertex="1">
          <mxGeometry x="1725" y="4096.3" width="145" height="52.5" as="geometry" />
        </mxCell>
        <mxCell id="vX9YrlGYbFmtOFFq3-KN-283" style="edgeStyle=orthogonalEdgeStyle;rounded=0;orthogonalLoop=1;jettySize=auto;html=1;entryX=1;entryY=0.5;entryDx=0;entryDy=0;" parent="1" source="vX9YrlGYbFmtOFFq3-KN-284" target="vX9YrlGYbFmtOFFq3-KN-287" edge="1">
          <mxGeometry relative="1" as="geometry" />
        </mxCell>
        <mxCell id="vX9YrlGYbFmtOFFq3-KN-284" value="getMinor()" style="rounded=0;whiteSpace=wrap;html=1;fontSize=20;fontStyle=1" parent="1" vertex="1">
          <mxGeometry x="1907.5" y="4197.75" width="200" height="50" as="geometry" />
        </mxCell>
        <mxCell id="vX9YrlGYbFmtOFFq3-KN-285" value="" style="endArrow=classic;html=1;rounded=0;fontFamily=Helvetica;fontSize=20;fontColor=default;" parent="1" edge="1">
          <mxGeometry relative="1" as="geometry">
            <mxPoint x="2132.5" y="4222.55" as="sourcePoint" />
            <mxPoint x="2107.5" y="4222.55" as="targetPoint" />
          </mxGeometry>
        </mxCell>
        <mxCell id="vX9YrlGYbFmtOFFq3-KN-286" value="" style="edgeLabel;resizable=0;html=1;;align=center;verticalAlign=middle;rounded=0;strokeColor=default;fontFamily=Helvetica;fontSize=20;fontColor=default;fillColor=default;" parent="vX9YrlGYbFmtOFFq3-KN-285" connectable="0" vertex="1">
          <mxGeometry relative="1" as="geometry" />
        </mxCell>
        <mxCell id="vX9YrlGYbFmtOFFq3-KN-287" value="&lt;div style=&quot;line-height: 19px; white-space: pre;&quot;&gt;&lt;span&gt;[ bytes ]&lt;/span&gt;&lt;/div&gt;" style="rounded=0;whiteSpace=wrap;html=1;fontSize=16;fontColor=default;fontFamily=Helvetica;" parent="1" vertex="1">
          <mxGeometry x="1725" y="4196.5" width="145" height="52.5" as="geometry" />
        </mxCell>
        <mxCell id="vX9YrlGYbFmtOFFq3-KN-288" style="edgeStyle=orthogonalEdgeStyle;rounded=0;orthogonalLoop=1;jettySize=auto;html=1;entryX=1;entryY=0.5;entryDx=0;entryDy=0;" parent="1" source="vX9YrlGYbFmtOFFq3-KN-289" target="vX9YrlGYbFmtOFFq3-KN-292" edge="1">
          <mxGeometry relative="1" as="geometry" />
        </mxCell>
        <mxCell id="vX9YrlGYbFmtOFFq3-KN-289" value="getTxPower()" style="rounded=0;whiteSpace=wrap;html=1;fontSize=20;fontStyle=1" parent="1" vertex="1">
          <mxGeometry x="1907.5" y="4295.05" width="200" height="50" as="geometry" />
        </mxCell>
        <mxCell id="vX9YrlGYbFmtOFFq3-KN-290" value="" style="endArrow=classic;html=1;rounded=0;fontFamily=Helvetica;fontSize=20;fontColor=default;" parent="1" edge="1">
          <mxGeometry relative="1" as="geometry">
            <mxPoint x="2132.5" y="4319.85" as="sourcePoint" />
            <mxPoint x="2107.5" y="4319.85" as="targetPoint" />
          </mxGeometry>
        </mxCell>
        <mxCell id="vX9YrlGYbFmtOFFq3-KN-291" value="" style="edgeLabel;resizable=0;html=1;;align=center;verticalAlign=middle;rounded=0;strokeColor=default;fontFamily=Helvetica;fontSize=20;fontColor=default;fillColor=default;" parent="vX9YrlGYbFmtOFFq3-KN-290" connectable="0" vertex="1">
          <mxGeometry relative="1" as="geometry" />
        </mxCell>
        <mxCell id="vX9YrlGYbFmtOFFq3-KN-292" value="&lt;div style=&quot;line-height: 19px; white-space: pre;&quot;&gt;&lt;span&gt;byte&lt;/span&gt;&lt;/div&gt;" style="rounded=0;whiteSpace=wrap;html=1;fontSize=16;fontColor=default;fontFamily=Helvetica;" parent="1" vertex="1">
          <mxGeometry x="1725" y="4293.8" width="145" height="52.5" as="geometry" />
        </mxCell>
        <mxCell id="vX9YrlGYbFmtOFFq3-KN-293" style="edgeStyle=orthogonalEdgeStyle;rounded=0;orthogonalLoop=1;jettySize=auto;html=1;entryX=1;entryY=0.5;entryDx=0;entryDy=0;" parent="1" source="vX9YrlGYbFmtOFFq3-KN-294" target="vX9YrlGYbFmtOFFq3-KN-297" edge="1">
          <mxGeometry relative="1" as="geometry" />
        </mxCell>
        <mxCell id="vX9YrlGYbFmtOFFq3-KN-294" value="getLosBytes()" style="rounded=0;whiteSpace=wrap;html=1;fontSize=20;fontStyle=1" parent="1" vertex="1">
          <mxGeometry x="1907.5" y="4409.88" width="200" height="50" as="geometry" />
        </mxCell>
        <mxCell id="vX9YrlGYbFmtOFFq3-KN-295" value="" style="endArrow=classic;html=1;rounded=0;fontFamily=Helvetica;fontSize=20;fontColor=default;" parent="1" edge="1">
          <mxGeometry relative="1" as="geometry">
            <mxPoint x="2132.5" y="4434.68" as="sourcePoint" />
            <mxPoint x="2107.5" y="4434.68" as="targetPoint" />
          </mxGeometry>
        </mxCell>
        <mxCell id="vX9YrlGYbFmtOFFq3-KN-296" value="" style="edgeLabel;resizable=0;html=1;;align=center;verticalAlign=middle;rounded=0;strokeColor=default;fontFamily=Helvetica;fontSize=20;fontColor=default;fillColor=default;" parent="vX9YrlGYbFmtOFFq3-KN-295" connectable="0" vertex="1">
          <mxGeometry relative="1" as="geometry" />
        </mxCell>
        <mxCell id="vX9YrlGYbFmtOFFq3-KN-297" value="&lt;div style=&quot;line-height: 19px; white-space: pre;&quot;&gt;&lt;span&gt;[ bytes ]&lt;/span&gt;&lt;/div&gt;" style="rounded=0;whiteSpace=wrap;html=1;fontSize=16;fontColor=default;fontFamily=Helvetica;" parent="1" vertex="1">
          <mxGeometry x="1725" y="4408.63" width="145" height="52.5" as="geometry" />
        </mxCell>
        <mxCell id="vX9YrlGYbFmtOFFq3-KN-298" style="edgeStyle=orthogonalEdgeStyle;rounded=0;orthogonalLoop=1;jettySize=auto;html=1;entryX=1;entryY=0.5;entryDx=0;entryDy=0;" parent="1" source="vX9YrlGYbFmtOFFq3-KN-299" target="vX9YrlGYbFmtOFFq3-KN-302" edge="1">
          <mxGeometry relative="1" as="geometry" />
        </mxCell>
        <mxCell id="vX9YrlGYbFmtOFFq3-KN-299" value="getAdvFlags()" style="rounded=0;whiteSpace=wrap;html=1;fontSize=20;fontStyle=1" parent="1" vertex="1">
          <mxGeometry x="1907.5" y="4512.25" width="200" height="50" as="geometry" />
        </mxCell>
        <mxCell id="vX9YrlGYbFmtOFFq3-KN-300" value="" style="endArrow=classic;html=1;rounded=0;fontFamily=Helvetica;fontSize=20;fontColor=default;" parent="1" edge="1">
          <mxGeometry relative="1" as="geometry">
            <mxPoint x="2132.5" y="4537.05" as="sourcePoint" />
            <mxPoint x="2107.5" y="4537.05" as="targetPoint" />
          </mxGeometry>
        </mxCell>
        <mxCell id="vX9YrlGYbFmtOFFq3-KN-301" value="" style="edgeLabel;resizable=0;html=1;;align=center;verticalAlign=middle;rounded=0;strokeColor=default;fontFamily=Helvetica;fontSize=20;fontColor=default;fillColor=default;" parent="vX9YrlGYbFmtOFFq3-KN-300" connectable="0" vertex="1">
          <mxGeometry relative="1" as="geometry" />
        </mxCell>
        <mxCell id="vX9YrlGYbFmtOFFq3-KN-302" value="&lt;div style=&quot;line-height: 19px; white-space: pre;&quot;&gt;&lt;span&gt;[ bytes ]&lt;/span&gt;&lt;/div&gt;" style="rounded=0;whiteSpace=wrap;html=1;fontSize=16;fontColor=default;fontFamily=Helvetica;" parent="1" vertex="1">
          <mxGeometry x="1725" y="4511" width="145" height="52.5" as="geometry" />
        </mxCell>
        <mxCell id="vX9YrlGYbFmtOFFq3-KN-303" style="edgeStyle=orthogonalEdgeStyle;rounded=0;orthogonalLoop=1;jettySize=auto;html=1;entryX=1;entryY=0.5;entryDx=0;entryDy=0;" parent="1" source="vX9YrlGYbFmtOFFq3-KN-304" target="vX9YrlGYbFmtOFFq3-KN-307" edge="1">
          <mxGeometry relative="1" as="geometry" />
        </mxCell>
        <mxCell id="vX9YrlGYbFmtOFFq3-KN-304" value="getAdvHeader()" style="rounded=0;whiteSpace=wrap;html=1;fontSize=20;fontStyle=1" parent="1" vertex="1">
          <mxGeometry x="1907.5" y="4610.25" width="200" height="50" as="geometry" />
        </mxCell>
        <mxCell id="vX9YrlGYbFmtOFFq3-KN-305" value="" style="endArrow=classic;html=1;rounded=0;fontFamily=Helvetica;fontSize=20;fontColor=default;" parent="1" edge="1">
          <mxGeometry relative="1" as="geometry">
            <mxPoint x="2132.5" y="4635.05" as="sourcePoint" />
            <mxPoint x="2107.5" y="4635.05" as="targetPoint" />
          </mxGeometry>
        </mxCell>
        <mxCell id="vX9YrlGYbFmtOFFq3-KN-306" value="" style="edgeLabel;resizable=0;html=1;;align=center;verticalAlign=middle;rounded=0;strokeColor=default;fontFamily=Helvetica;fontSize=20;fontColor=default;fillColor=default;" parent="vX9YrlGYbFmtOFFq3-KN-305" connectable="0" vertex="1">
          <mxGeometry relative="1" as="geometry" />
        </mxCell>
        <mxCell id="vX9YrlGYbFmtOFFq3-KN-307" value="&lt;div style=&quot;line-height: 19px; white-space: pre;&quot;&gt;&lt;span&gt;[ bytes ]&lt;/span&gt;&lt;/div&gt;" style="rounded=0;whiteSpace=wrap;html=1;fontSize=16;fontColor=default;fontFamily=Helvetica;" parent="1" vertex="1">
          <mxGeometry x="1725" y="4609" width="145" height="52.5" as="geometry" />
        </mxCell>
        <mxCell id="vX9YrlGYbFmtOFFq3-KN-308" style="edgeStyle=orthogonalEdgeStyle;rounded=0;orthogonalLoop=1;jettySize=auto;html=1;entryX=1;entryY=0.5;entryDx=0;entryDy=0;" parent="1" source="vX9YrlGYbFmtOFFq3-KN-309" target="vX9YrlGYbFmtOFFq3-KN-312" edge="1">
          <mxGeometry relative="1" as="geometry" />
        </mxCell>
        <mxCell id="vX9YrlGYbFmtOFFq3-KN-309" value="getCompanyID()" style="rounded=0;whiteSpace=wrap;html=1;fontSize=20;fontStyle=1" parent="1" vertex="1">
          <mxGeometry x="1910" y="4722.25" width="200" height="50" as="geometry" />
        </mxCell>
        <mxCell id="vX9YrlGYbFmtOFFq3-KN-310" value="" style="endArrow=classic;html=1;rounded=0;fontFamily=Helvetica;fontSize=20;fontColor=default;" parent="1" edge="1">
          <mxGeometry relative="1" as="geometry">
            <mxPoint x="2135" y="4747.05" as="sourcePoint" />
            <mxPoint x="2110" y="4747.05" as="targetPoint" />
          </mxGeometry>
        </mxCell>
        <mxCell id="vX9YrlGYbFmtOFFq3-KN-311" value="" style="edgeLabel;resizable=0;html=1;;align=center;verticalAlign=middle;rounded=0;strokeColor=default;fontFamily=Helvetica;fontSize=20;fontColor=default;fillColor=default;" parent="vX9YrlGYbFmtOFFq3-KN-310" connectable="0" vertex="1">
          <mxGeometry relative="1" as="geometry" />
        </mxCell>
        <mxCell id="vX9YrlGYbFmtOFFq3-KN-312" value="&lt;div style=&quot;line-height: 19px; white-space: pre;&quot;&gt;&lt;span&gt;[ bytes ]&lt;/span&gt;&lt;/div&gt;" style="rounded=0;whiteSpace=wrap;html=1;fontSize=16;fontColor=default;fontFamily=Helvetica;" parent="1" vertex="1">
          <mxGeometry x="1727.5" y="4721" width="145" height="52.5" as="geometry" />
        </mxCell>
        <mxCell id="vX9YrlGYbFmtOFFq3-KN-313" style="edgeStyle=orthogonalEdgeStyle;rounded=0;orthogonalLoop=1;jettySize=auto;html=1;entryX=1;entryY=0.5;entryDx=0;entryDy=0;" parent="1" source="vX9YrlGYbFmtOFFq3-KN-314" target="vX9YrlGYbFmtOFFq3-KN-317" edge="1">
          <mxGeometry relative="1" as="geometry" />
        </mxCell>
        <mxCell id="vX9YrlGYbFmtOFFq3-KN-314" value="getiBeaconType()" style="rounded=0;whiteSpace=wrap;html=1;fontSize=20;fontStyle=1" parent="1" vertex="1">
          <mxGeometry x="1910" y="4838.19" width="200" height="50" as="geometry" />
        </mxCell>
        <mxCell id="vX9YrlGYbFmtOFFq3-KN-315" value="" style="endArrow=classic;html=1;rounded=0;fontFamily=Helvetica;fontSize=20;fontColor=default;" parent="1" edge="1">
          <mxGeometry relative="1" as="geometry">
            <mxPoint x="2135" y="4862.99" as="sourcePoint" />
            <mxPoint x="2110" y="4862.99" as="targetPoint" />
          </mxGeometry>
        </mxCell>
        <mxCell id="vX9YrlGYbFmtOFFq3-KN-316" value="" style="edgeLabel;resizable=0;html=1;;align=center;verticalAlign=middle;rounded=0;strokeColor=default;fontFamily=Helvetica;fontSize=20;fontColor=default;fillColor=default;" parent="vX9YrlGYbFmtOFFq3-KN-315" connectable="0" vertex="1">
          <mxGeometry relative="1" as="geometry" />
        </mxCell>
        <mxCell id="vX9YrlGYbFmtOFFq3-KN-317" value="&lt;div style=&quot;line-height: 19px; white-space: pre;&quot;&gt;&lt;span&gt;byte&lt;/span&gt;&lt;/div&gt;" style="rounded=0;whiteSpace=wrap;html=1;fontSize=16;fontColor=default;fontFamily=Helvetica;" parent="1" vertex="1">
          <mxGeometry x="1727.5" y="4836.94" width="145" height="52.5" as="geometry" />
        </mxCell>
        <mxCell id="vX9YrlGYbFmtOFFq3-KN-318" style="edgeStyle=orthogonalEdgeStyle;rounded=0;orthogonalLoop=1;jettySize=auto;html=1;entryX=1;entryY=0.5;entryDx=0;entryDy=0;" parent="1" source="vX9YrlGYbFmtOFFq3-KN-319" target="vX9YrlGYbFmtOFFq3-KN-322" edge="1">
          <mxGeometry relative="1" as="geometry" />
        </mxCell>
        <mxCell id="vX9YrlGYbFmtOFFq3-KN-319" value="getiBeaconLength()" style="rounded=0;whiteSpace=wrap;html=1;fontSize=20;fontStyle=1" parent="1" vertex="1">
          <mxGeometry x="1910" y="4940.25" width="200" height="50" as="geometry" />
        </mxCell>
        <mxCell id="vX9YrlGYbFmtOFFq3-KN-320" value="" style="endArrow=classic;html=1;rounded=0;fontFamily=Helvetica;fontSize=20;fontColor=default;" parent="1" edge="1">
          <mxGeometry relative="1" as="geometry">
            <mxPoint x="2135" y="4965.05" as="sourcePoint" />
            <mxPoint x="2110" y="4965.05" as="targetPoint" />
          </mxGeometry>
        </mxCell>
        <mxCell id="vX9YrlGYbFmtOFFq3-KN-321" value="" style="edgeLabel;resizable=0;html=1;;align=center;verticalAlign=middle;rounded=0;strokeColor=default;fontFamily=Helvetica;fontSize=20;fontColor=default;fillColor=default;" parent="vX9YrlGYbFmtOFFq3-KN-320" connectable="0" vertex="1">
          <mxGeometry relative="1" as="geometry" />
        </mxCell>
        <mxCell id="vX9YrlGYbFmtOFFq3-KN-322" value="&lt;div style=&quot;line-height: 19px; white-space: pre;&quot;&gt;&lt;span&gt;byte&lt;/span&gt;&lt;/div&gt;" style="rounded=0;whiteSpace=wrap;html=1;fontSize=16;fontColor=default;fontFamily=Helvetica;" parent="1" vertex="1">
          <mxGeometry x="1727.5" y="4939" width="145" height="52.5" as="geometry" />
        </mxCell>
        <mxCell id="vX9YrlGYbFmtOFFq3-KN-324" style="edgeStyle=orthogonalEdgeStyle;rounded=0;orthogonalLoop=1;jettySize=auto;html=1;entryX=0;entryY=0.5;entryDx=0;entryDy=0;fontFamily=Helvetica;fontSize=20;fontColor=default;" parent="1" edge="1">
          <mxGeometry relative="1" as="geometry">
            <mxPoint x="3012.5" y="-185" as="sourcePoint" />
          </mxGeometry>
        </mxCell>
        <mxCell id="vX9YrlGYbFmtOFFq3-KN-326" value="&lt;b&gt;[ bytes ]&lt;/b&gt;" style="rounded=0;whiteSpace=wrap;html=1;fontSize=16;" parent="1" vertex="1">
          <mxGeometry x="-1512.5" y="3669.25" width="242.5" height="43.75" as="geometry" />
        </mxCell>
        <mxCell id="vX9YrlGYbFmtOFFq3-KN-328" style="edgeStyle=orthogonalEdgeStyle;rounded=0;orthogonalLoop=1;jettySize=auto;html=1;entryX=1;entryY=0.5;entryDx=0;entryDy=0;" parent="1" source="vX9YrlGYbFmtOFFq3-KN-329" target="vX9YrlGYbFmtOFFq3-KN-334" edge="1">
          <mxGeometry relative="1" as="geometry">
            <Array as="points">
              <mxPoint x="-1162.5" y="3909" />
            </Array>
          </mxGeometry>
        </mxCell>
        <mxCell id="vX9YrlGYbFmtOFFq3-KN-329" value="&lt;font&gt;stringToUUID()&lt;/font&gt;" style="rounded=0;whiteSpace=wrap;html=1;fontSize=20;fontStyle=1" parent="1" vertex="1">
          <mxGeometry x="-1212.5" y="3793" width="160" height="45" as="geometry" />
        </mxCell>
        <mxCell id="vX9YrlGYbFmtOFFq3-KN-332" style="edgeStyle=orthogonalEdgeStyle;rounded=0;orthogonalLoop=1;jettySize=auto;html=1;entryX=0;entryY=0.5;entryDx=0;entryDy=0;fontFamily=Helvetica;fontSize=20;fontColor=default;" parent="1" source="vX9YrlGYbFmtOFFq3-KN-333" target="vX9YrlGYbFmtOFFq3-KN-329" edge="1">
          <mxGeometry relative="1" as="geometry" />
        </mxCell>
        <mxCell id="vX9YrlGYbFmtOFFq3-KN-333" value="&lt;b&gt;uuid: &lt;/b&gt;texto" style="rounded=0;whiteSpace=wrap;html=1;fontSize=16;" parent="1" vertex="1">
          <mxGeometry x="-1512.5" y="3793" width="242.5" height="43.75" as="geometry" />
        </mxCell>
        <mxCell id="vX9YrlGYbFmtOFFq3-KN-334" value="&lt;b&gt;{&amp;nbsp;&lt;/b&gt;&lt;b&gt;UUID&lt;/b&gt;&lt;b&gt;&amp;nbsp;}&lt;/b&gt;" style="rounded=0;whiteSpace=wrap;html=1;fontSize=16;" parent="1" vertex="1">
          <mxGeometry x="-1512.5" y="3887.25" width="242.5" height="43.75" as="geometry" />
        </mxCell>
        <mxCell id="vX9YrlGYbFmtOFFq3-KN-335" style="edgeStyle=orthogonalEdgeStyle;rounded=0;orthogonalLoop=1;jettySize=auto;html=1;entryX=1;entryY=0.5;entryDx=0;entryDy=0;" parent="1" source="vX9YrlGYbFmtOFFq3-KN-336" target="vX9YrlGYbFmtOFFq3-KN-341" edge="1">
          <mxGeometry relative="1" as="geometry">
            <Array as="points">
              <mxPoint x="-1162.5" y="4120.25" />
            </Array>
          </mxGeometry>
        </mxCell>
        <mxCell id="vX9YrlGYbFmtOFFq3-KN-336" value="&lt;font&gt;stringToUUID()&lt;/font&gt;" style="rounded=0;whiteSpace=wrap;html=1;fontSize=20;fontStyle=1" parent="1" vertex="1">
          <mxGeometry x="-1212.5" y="4004.25" width="160" height="45" as="geometry" />
        </mxCell>
        <mxCell id="vX9YrlGYbFmtOFFq3-KN-337" value="" style="endArrow=classic;html=1;rounded=0;fontFamily=Helvetica;fontSize=20;fontColor=default;" parent="1" edge="1">
          <mxGeometry relative="1" as="geometry">
            <mxPoint x="-1052.5" y="4026.55" as="sourcePoint" />
            <mxPoint x="-1027.5" y="4026.55" as="targetPoint" />
          </mxGeometry>
        </mxCell>
        <mxCell id="vX9YrlGYbFmtOFFq3-KN-338" value="" style="edgeLabel;resizable=0;html=1;;align=center;verticalAlign=middle;rounded=0;strokeColor=default;fontFamily=Helvetica;fontSize=20;fontColor=default;fillColor=default;" parent="vX9YrlGYbFmtOFFq3-KN-337" connectable="0" vertex="1">
          <mxGeometry relative="1" as="geometry" />
        </mxCell>
        <mxCell id="vX9YrlGYbFmtOFFq3-KN-339" style="edgeStyle=orthogonalEdgeStyle;rounded=0;orthogonalLoop=1;jettySize=auto;html=1;entryX=0;entryY=0.5;entryDx=0;entryDy=0;fontFamily=Helvetica;fontSize=20;fontColor=default;" parent="1" source="vX9YrlGYbFmtOFFq3-KN-340" target="vX9YrlGYbFmtOFFq3-KN-336" edge="1">
          <mxGeometry relative="1" as="geometry" />
        </mxCell>
        <mxCell id="vX9YrlGYbFmtOFFq3-KN-340" value="&lt;b&gt;uuid: &lt;/b&gt;texto" style="rounded=0;whiteSpace=wrap;html=1;fontSize=16;" parent="1" vertex="1">
          <mxGeometry x="-1512.5" y="4004.25" width="242.5" height="43.75" as="geometry" />
        </mxCell>
        <mxCell id="vX9YrlGYbFmtOFFq3-KN-341" value="&lt;b&gt;{&amp;nbsp;&lt;/b&gt;&lt;b&gt;UUID&lt;/b&gt;&lt;b&gt;&amp;nbsp;}&lt;/b&gt;" style="rounded=0;whiteSpace=wrap;html=1;fontSize=16;" parent="1" vertex="1">
          <mxGeometry x="-1512.5" y="4098.5" width="242.5" height="43.75" as="geometry" />
        </mxCell>
        <mxCell id="vX9YrlGYbFmtOFFq3-KN-342" style="edgeStyle=orthogonalEdgeStyle;rounded=0;orthogonalLoop=1;jettySize=auto;html=1;entryX=1;entryY=0.5;entryDx=0;entryDy=0;" parent="1" source="vX9YrlGYbFmtOFFq3-KN-343" target="vX9YrlGYbFmtOFFq3-KN-348" edge="1">
          <mxGeometry relative="1" as="geometry">
            <Array as="points">
              <mxPoint x="-1152.5" y="4326" />
            </Array>
          </mxGeometry>
        </mxCell>
        <mxCell id="vX9YrlGYbFmtOFFq3-KN-343" value="&lt;font&gt;uuidToString()&lt;/font&gt;" style="rounded=0;whiteSpace=wrap;html=1;fontSize=20;fontStyle=1" parent="1" vertex="1">
          <mxGeometry x="-1202.5" y="4210" width="160" height="45" as="geometry" />
        </mxCell>
        <mxCell id="vX9YrlGYbFmtOFFq3-KN-344" value="" style="endArrow=classic;html=1;rounded=0;fontFamily=Helvetica;fontSize=20;fontColor=default;" parent="1" edge="1">
          <mxGeometry relative="1" as="geometry">
            <mxPoint x="-1042.5" y="4232.3" as="sourcePoint" />
            <mxPoint x="-1017.5" y="4232.3" as="targetPoint" />
          </mxGeometry>
        </mxCell>
        <mxCell id="vX9YrlGYbFmtOFFq3-KN-345" value="" style="edgeLabel;resizable=0;html=1;;align=center;verticalAlign=middle;rounded=0;strokeColor=default;fontFamily=Helvetica;fontSize=20;fontColor=default;fillColor=default;" parent="vX9YrlGYbFmtOFFq3-KN-344" connectable="0" vertex="1">
          <mxGeometry relative="1" as="geometry" />
        </mxCell>
        <mxCell id="vX9YrlGYbFmtOFFq3-KN-346" style="edgeStyle=orthogonalEdgeStyle;rounded=0;orthogonalLoop=1;jettySize=auto;html=1;entryX=0;entryY=0.5;entryDx=0;entryDy=0;fontFamily=Helvetica;fontSize=20;fontColor=default;" parent="1" source="vX9YrlGYbFmtOFFq3-KN-347" target="vX9YrlGYbFmtOFFq3-KN-343" edge="1">
          <mxGeometry relative="1" as="geometry" />
        </mxCell>
        <mxCell id="vX9YrlGYbFmtOFFq3-KN-347" value="&lt;b&gt;uuid: &lt;/b&gt;{ UUID }" style="rounded=0;whiteSpace=wrap;html=1;fontSize=16;" parent="1" vertex="1">
          <mxGeometry x="-1502.5" y="4210" width="242.5" height="43.75" as="geometry" />
        </mxCell>
        <mxCell id="vX9YrlGYbFmtOFFq3-KN-348" value="&lt;b&gt;texto&lt;/b&gt;" style="rounded=0;whiteSpace=wrap;html=1;fontSize=16;" parent="1" vertex="1">
          <mxGeometry x="-1502.5" y="4304.25" width="242.5" height="43.75" as="geometry" />
        </mxCell>
        <mxCell id="vX9YrlGYbFmtOFFq3-KN-349" style="edgeStyle=orthogonalEdgeStyle;rounded=0;orthogonalLoop=1;jettySize=auto;html=1;entryX=1;entryY=0.5;entryDx=0;entryDy=0;" parent="1" source="vX9YrlGYbFmtOFFq3-KN-350" target="vX9YrlGYbFmtOFFq3-KN-355" edge="1">
          <mxGeometry relative="1" as="geometry">
            <Array as="points">
              <mxPoint x="-1152.5" y="4539" />
            </Array>
          </mxGeometry>
        </mxCell>
        <mxCell id="vX9YrlGYbFmtOFFq3-KN-350" value="&lt;font&gt;uuidToHexString()&lt;/font&gt;" style="rounded=0;whiteSpace=wrap;html=1;fontSize=20;fontStyle=1" parent="1" vertex="1">
          <mxGeometry x="-1222.5" y="4423" width="180" height="45" as="geometry" />
        </mxCell>
        <mxCell id="vX9YrlGYbFmtOFFq3-KN-351" value="" style="endArrow=classic;html=1;rounded=0;fontFamily=Helvetica;fontSize=20;fontColor=default;" parent="1" edge="1">
          <mxGeometry relative="1" as="geometry">
            <mxPoint x="-1042.5" y="4445.3" as="sourcePoint" />
            <mxPoint x="-1017.5" y="4445.3" as="targetPoint" />
          </mxGeometry>
        </mxCell>
        <mxCell id="vX9YrlGYbFmtOFFq3-KN-352" value="" style="edgeLabel;resizable=0;html=1;;align=center;verticalAlign=middle;rounded=0;strokeColor=default;fontFamily=Helvetica;fontSize=20;fontColor=default;fillColor=default;" parent="vX9YrlGYbFmtOFFq3-KN-351" connectable="0" vertex="1">
          <mxGeometry relative="1" as="geometry" />
        </mxCell>
        <mxCell id="vX9YrlGYbFmtOFFq3-KN-353" style="edgeStyle=orthogonalEdgeStyle;rounded=0;orthogonalLoop=1;jettySize=auto;html=1;entryX=0;entryY=0.5;entryDx=0;entryDy=0;fontFamily=Helvetica;fontSize=20;fontColor=default;" parent="1" source="vX9YrlGYbFmtOFFq3-KN-354" target="vX9YrlGYbFmtOFFq3-KN-350" edge="1">
          <mxGeometry relative="1" as="geometry" />
        </mxCell>
        <mxCell id="vX9YrlGYbFmtOFFq3-KN-354" value="&lt;b&gt;uuid: &lt;/b&gt;{ UUID }" style="rounded=0;whiteSpace=wrap;html=1;fontSize=16;" parent="1" vertex="1">
          <mxGeometry x="-1502.5" y="4423" width="242.5" height="43.75" as="geometry" />
        </mxCell>
        <mxCell id="vX9YrlGYbFmtOFFq3-KN-355" value="&lt;b&gt;texto (formato hex)&lt;/b&gt;" style="rounded=0;whiteSpace=wrap;html=1;fontSize=16;" parent="1" vertex="1">
          <mxGeometry x="-1502.5" y="4517.25" width="242.5" height="43.75" as="geometry" />
        </mxCell>
        <mxCell id="vX9YrlGYbFmtOFFq3-KN-361" style="edgeStyle=orthogonalEdgeStyle;rounded=0;orthogonalLoop=1;jettySize=auto;html=1;" parent="1" source="vX9YrlGYbFmtOFFq3-KN-357" target="vX9YrlGYbFmtOFFq3-KN-360" edge="1">
          <mxGeometry relative="1" as="geometry">
            <Array as="points">
              <mxPoint x="-482.5" y="3721" />
            </Array>
          </mxGeometry>
        </mxCell>
        <mxCell id="vX9YrlGYbFmtOFFq3-KN-357" value="&lt;font&gt;bytesToString()&lt;/font&gt;" style="rounded=0;whiteSpace=wrap;html=1;fontSize=20;fontStyle=1" parent="1" vertex="1">
          <mxGeometry x="-582.5" y="3587" width="160" height="45" as="geometry" />
        </mxCell>
        <mxCell id="vX9YrlGYbFmtOFFq3-KN-362" style="edgeStyle=orthogonalEdgeStyle;rounded=0;orthogonalLoop=1;jettySize=auto;html=1;entryX=1;entryY=0.5;entryDx=0;entryDy=0;" parent="1" source="vX9YrlGYbFmtOFFq3-KN-359" target="vX9YrlGYbFmtOFFq3-KN-357" edge="1">
          <mxGeometry relative="1" as="geometry" />
        </mxCell>
        <mxCell id="vX9YrlGYbFmtOFFq3-KN-359" value="&lt;b&gt;bytes: &lt;/b&gt;[ bytes ]" style="rounded=0;whiteSpace=wrap;html=1;fontSize=16;" parent="1" vertex="1">
          <mxGeometry x="-386.25" y="3587.62" width="242.5" height="43.75" as="geometry" />
        </mxCell>
        <mxCell id="vX9YrlGYbFmtOFFq3-KN-360" value="&lt;b&gt;texto&lt;/b&gt;" style="rounded=0;whiteSpace=wrap;html=1;fontSize=16;" parent="1" vertex="1">
          <mxGeometry x="-385" y="3699.25" width="242.5" height="43.75" as="geometry" />
        </mxCell>
        <mxCell id="vX9YrlGYbFmtOFFq3-KN-363" style="edgeStyle=orthogonalEdgeStyle;rounded=0;orthogonalLoop=1;jettySize=auto;html=1;" parent="1" source="vX9YrlGYbFmtOFFq3-KN-364" target="vX9YrlGYbFmtOFFq3-KN-367" edge="1">
          <mxGeometry relative="1" as="geometry">
            <Array as="points">
              <mxPoint x="-483.75" y="3982.25" />
            </Array>
          </mxGeometry>
        </mxCell>
        <mxCell id="vX9YrlGYbFmtOFFq3-KN-364" value="&lt;font&gt;dosLongToBytes&lt;/font&gt;" style="rounded=0;whiteSpace=wrap;html=1;fontSize=20;fontStyle=1" parent="1" vertex="1">
          <mxGeometry x="-632.5" y="3850.62" width="208.75" height="40.25" as="geometry" />
        </mxCell>
        <mxCell id="vX9YrlGYbFmtOFFq3-KN-365" style="edgeStyle=orthogonalEdgeStyle;rounded=0;orthogonalLoop=1;jettySize=auto;html=1;entryX=1;entryY=0.5;entryDx=0;entryDy=0;" parent="1" source="vX9YrlGYbFmtOFFq3-KN-366" target="vX9YrlGYbFmtOFFq3-KN-364" edge="1">
          <mxGeometry relative="1" as="geometry" />
        </mxCell>
        <mxCell id="vX9YrlGYbFmtOFFq3-KN-366" value="&lt;b&gt;masSignificativo: &lt;/b&gt;numero Z&lt;div&gt;&lt;b&gt;&lt;br&gt;&lt;/b&gt;&lt;/div&gt;&lt;div&gt;&lt;b&gt;menosSignificativo: &lt;/b&gt;numero Z&lt;/div&gt;" style="rounded=0;whiteSpace=wrap;html=1;fontSize=16;" parent="1" vertex="1">
          <mxGeometry x="-386.25" y="3835.9300000000003" width="245" height="69.62" as="geometry" />
        </mxCell>
        <mxCell id="vX9YrlGYbFmtOFFq3-KN-367" value="&lt;b&gt;texto&lt;/b&gt;" style="rounded=0;whiteSpace=wrap;html=1;fontSize=16;" parent="1" vertex="1">
          <mxGeometry x="-386.25" y="3960.5" width="242.5" height="43.75" as="geometry" />
        </mxCell>
        <mxCell id="vX9YrlGYbFmtOFFq3-KN-368" style="edgeStyle=orthogonalEdgeStyle;rounded=0;orthogonalLoop=1;jettySize=auto;html=1;" parent="1" source="vX9YrlGYbFmtOFFq3-KN-369" target="vX9YrlGYbFmtOFFq3-KN-372" edge="1">
          <mxGeometry relative="1" as="geometry">
            <Array as="points">
              <mxPoint x="-483.75" y="4257.57" />
            </Array>
          </mxGeometry>
        </mxCell>
        <mxCell id="vX9YrlGYbFmtOFFq3-KN-369" value="&lt;font&gt;bytesToInt&lt;/font&gt;" style="rounded=0;whiteSpace=wrap;html=1;fontSize=20;fontStyle=1" parent="1" vertex="1">
          <mxGeometry x="-632.5" y="4125.94" width="208.75" height="40.25" as="geometry" />
        </mxCell>
        <mxCell id="vX9YrlGYbFmtOFFq3-KN-370" style="edgeStyle=orthogonalEdgeStyle;rounded=0;orthogonalLoop=1;jettySize=auto;html=1;entryX=1;entryY=0.5;entryDx=0;entryDy=0;" parent="1" source="vX9YrlGYbFmtOFFq3-KN-371" target="vX9YrlGYbFmtOFFq3-KN-369" edge="1">
          <mxGeometry relative="1" as="geometry" />
        </mxCell>
        <mxCell id="vX9YrlGYbFmtOFFq3-KN-371" value="&lt;b&gt;bytes:&amp;nbsp;&lt;/b&gt;[ bytes ]" style="rounded=0;whiteSpace=wrap;html=1;fontSize=16;" parent="1" vertex="1">
          <mxGeometry x="-387.5" y="4125.17" width="243.75" height="41.75" as="geometry" />
        </mxCell>
        <mxCell id="vX9YrlGYbFmtOFFq3-KN-372" value="&lt;b&gt;numero Z&lt;/b&gt;" style="rounded=0;whiteSpace=wrap;html=1;fontSize=16;" parent="1" vertex="1">
          <mxGeometry x="-386.25" y="4235.82" width="242.5" height="43.75" as="geometry" />
        </mxCell>
        <mxCell id="vX9YrlGYbFmtOFFq3-KN-373" style="edgeStyle=orthogonalEdgeStyle;rounded=0;orthogonalLoop=1;jettySize=auto;html=1;" parent="1" source="vX9YrlGYbFmtOFFq3-KN-374" target="vX9YrlGYbFmtOFFq3-KN-377" edge="1">
          <mxGeometry relative="1" as="geometry">
            <Array as="points">
              <mxPoint x="-472.5" y="4514.45" />
            </Array>
          </mxGeometry>
        </mxCell>
        <mxCell id="vX9YrlGYbFmtOFFq3-KN-374" value="&lt;font&gt;bytesToLong&lt;/font&gt;" style="rounded=0;whiteSpace=wrap;html=1;fontSize=20;fontStyle=1" parent="1" vertex="1">
          <mxGeometry x="-621.25" y="4382.82" width="208.75" height="40.25" as="geometry" />
        </mxCell>
        <mxCell id="vX9YrlGYbFmtOFFq3-KN-375" style="edgeStyle=orthogonalEdgeStyle;rounded=0;orthogonalLoop=1;jettySize=auto;html=1;entryX=1;entryY=0.5;entryDx=0;entryDy=0;" parent="1" source="vX9YrlGYbFmtOFFq3-KN-376" target="vX9YrlGYbFmtOFFq3-KN-374" edge="1">
          <mxGeometry relative="1" as="geometry" />
        </mxCell>
        <mxCell id="vX9YrlGYbFmtOFFq3-KN-376" value="&lt;b&gt;bytes:&amp;nbsp;&lt;/b&gt;[ bytes ]" style="rounded=0;whiteSpace=wrap;html=1;fontSize=16;" parent="1" vertex="1">
          <mxGeometry x="-376.25" y="4382.05" width="243.75" height="41.75" as="geometry" />
        </mxCell>
        <mxCell id="vX9YrlGYbFmtOFFq3-KN-377" value="&lt;b&gt;numero Z&lt;/b&gt;" style="rounded=0;whiteSpace=wrap;html=1;fontSize=16;" parent="1" vertex="1">
          <mxGeometry x="-375" y="4492.7" width="242.5" height="43.75" as="geometry" />
        </mxCell>
        <mxCell id="vX9YrlGYbFmtOFFq3-KN-378" style="edgeStyle=orthogonalEdgeStyle;rounded=0;orthogonalLoop=1;jettySize=auto;html=1;" parent="1" source="vX9YrlGYbFmtOFFq3-KN-379" target="vX9YrlGYbFmtOFFq3-KN-382" edge="1">
          <mxGeometry relative="1" as="geometry">
            <Array as="points">
              <mxPoint x="-483.75" y="4805.4" />
            </Array>
          </mxGeometry>
        </mxCell>
        <mxCell id="vX9YrlGYbFmtOFFq3-KN-379" value="&lt;font&gt;bytesToIntOK&lt;/font&gt;" style="rounded=0;whiteSpace=wrap;html=1;fontSize=20;fontStyle=1" parent="1" vertex="1">
          <mxGeometry x="-632.5" y="4673.7699999999995" width="208.75" height="40.25" as="geometry" />
        </mxCell>
        <mxCell id="vX9YrlGYbFmtOFFq3-KN-380" style="edgeStyle=orthogonalEdgeStyle;rounded=0;orthogonalLoop=1;jettySize=auto;html=1;entryX=1;entryY=0.5;entryDx=0;entryDy=0;" parent="1" source="vX9YrlGYbFmtOFFq3-KN-381" target="vX9YrlGYbFmtOFFq3-KN-379" edge="1">
          <mxGeometry relative="1" as="geometry" />
        </mxCell>
        <mxCell id="vX9YrlGYbFmtOFFq3-KN-381" value="&lt;b&gt;bytes:&amp;nbsp;&lt;/b&gt;[ bytes ]" style="rounded=0;whiteSpace=wrap;html=1;fontSize=16;" parent="1" vertex="1">
          <mxGeometry x="-387.5" y="4673" width="243.75" height="41.75" as="geometry" />
        </mxCell>
        <mxCell id="vX9YrlGYbFmtOFFq3-KN-382" value="&lt;b&gt;numero Z&lt;/b&gt;" style="rounded=0;whiteSpace=wrap;html=1;fontSize=16;" parent="1" vertex="1">
          <mxGeometry x="-386.25" y="4783.65" width="242.5" height="43.75" as="geometry" />
        </mxCell>
        <mxCell id="vX9YrlGYbFmtOFFq3-KN-383" style="edgeStyle=orthogonalEdgeStyle;rounded=0;orthogonalLoop=1;jettySize=auto;html=1;" parent="1" source="vX9YrlGYbFmtOFFq3-KN-384" target="vX9YrlGYbFmtOFFq3-KN-387" edge="1">
          <mxGeometry relative="1" as="geometry">
            <Array as="points">
              <mxPoint x="-472.5" y="5095.4" />
            </Array>
          </mxGeometry>
        </mxCell>
        <mxCell id="vX9YrlGYbFmtOFFq3-KN-384" value="&lt;font&gt;bytesToHexString&lt;/font&gt;" style="rounded=0;whiteSpace=wrap;html=1;fontSize=20;fontStyle=1" parent="1" vertex="1">
          <mxGeometry x="-621.25" y="4963.7699999999995" width="208.75" height="40.25" as="geometry" />
        </mxCell>
        <mxCell id="vX9YrlGYbFmtOFFq3-KN-385" style="edgeStyle=orthogonalEdgeStyle;rounded=0;orthogonalLoop=1;jettySize=auto;html=1;entryX=1;entryY=0.5;entryDx=0;entryDy=0;" parent="1" source="vX9YrlGYbFmtOFFq3-KN-386" target="vX9YrlGYbFmtOFFq3-KN-384" edge="1">
          <mxGeometry relative="1" as="geometry" />
        </mxCell>
        <mxCell id="vX9YrlGYbFmtOFFq3-KN-386" value="&lt;b&gt;bytes:&amp;nbsp;&lt;/b&gt;[ bytes ]" style="rounded=0;whiteSpace=wrap;html=1;fontSize=16;" parent="1" vertex="1">
          <mxGeometry x="-376.25" y="4963" width="243.75" height="41.75" as="geometry" />
        </mxCell>
        <mxCell id="vX9YrlGYbFmtOFFq3-KN-387" value="&lt;b&gt;texto (formato hex)&lt;/b&gt;" style="rounded=0;whiteSpace=wrap;html=1;fontSize=16;" parent="1" vertex="1">
          <mxGeometry x="-375" y="5073.65" width="242.5" height="43.75" as="geometry" />
        </mxCell>
        <mxCell id="zv8MzdW2czZ-i8QVG8Ur-1" value="" style="rounded=0;whiteSpace=wrap;html=1;convertToSvg=0;" vertex="1" parent="1">
          <mxGeometry x="3127.5" y="3679" width="486.88" height="510" as="geometry" />
        </mxCell>
        <mxCell id="zv8MzdW2czZ-i8QVG8Ur-2" value="LogicaFake" style="text;html=1;align=center;verticalAlign=middle;whiteSpace=wrap;rounded=0;fontSize=28;fontStyle=1" vertex="1" parent="1">
          <mxGeometry x="3203.44" y="3699.25" width="335" height="90" as="geometry" />
        </mxCell>
        <mxCell id="zv8MzdW2czZ-i8QVG8Ur-3" style="edgeStyle=orthogonalEdgeStyle;rounded=0;orthogonalLoop=1;jettySize=auto;html=1;exitX=1;exitY=0.5;exitDx=0;exitDy=0;entryX=0;entryY=0.5;entryDx=0;entryDy=0;" edge="1" parent="1" source="zv8MzdW2czZ-i8QVG8Ur-4" target="zv8MzdW2czZ-i8QVG8Ur-7">
          <mxGeometry relative="1" as="geometry">
            <Array as="points">
              <mxPoint x="3727.5" y="3827" />
            </Array>
          </mxGeometry>
        </mxCell>
        <mxCell id="zv8MzdW2czZ-i8QVG8Ur-4" value="&lt;font&gt;ToString()&lt;/font&gt;" style="rounded=0;whiteSpace=wrap;html=1;fontSize=20;fontStyle=1" vertex="1" parent="1">
          <mxGeometry x="3517.5" y="3804.5" width="160" height="45" as="geometry" />
        </mxCell>
        <mxCell id="zv8MzdW2czZ-i8QVG8Ur-7" value="&lt;b&gt;texto&lt;/b&gt;" style="rounded=0;whiteSpace=wrap;html=1;fontSize=16;" vertex="1" parent="1">
          <mxGeometry x="3747.5" y="3805.12" width="242.5" height="43.75" as="geometry" />
        </mxCell>
        <mxCell id="zv8MzdW2czZ-i8QVG8Ur-8" value="Constructor()" style="rounded=0;whiteSpace=wrap;html=1;fontSize=20;fontStyle=1" vertex="1" parent="1">
          <mxGeometry x="3031.75" y="3799.12" width="200" height="49.13" as="geometry" />
        </mxCell>
        <mxCell id="zv8MzdW2czZ-i8QVG8Ur-10" style="edgeStyle=orthogonalEdgeStyle;rounded=0;orthogonalLoop=1;jettySize=auto;html=1;exitX=1;exitY=0.5;exitDx=0;exitDy=0;entryX=0;entryY=0.5;entryDx=0;entryDy=0;" edge="1" parent="1">
          <mxGeometry relative="1" as="geometry">
            <Array as="points">
              <mxPoint x="3281.75" y="3826.41" />
            </Array>
            <mxPoint x="3231.75" y="3826.41" as="sourcePoint" />
            <mxPoint x="3301.75" y="3826.41" as="targetPoint" />
          </mxGeometry>
        </mxCell>
        <mxCell id="zv8MzdW2czZ-i8QVG8Ur-12" value="guardarMedida()" style="rounded=0;whiteSpace=wrap;html=1;fontSize=20;fontStyle=1" vertex="1" parent="1">
          <mxGeometry x="3017.5" y="3952.25" width="205.75" height="50" as="geometry" />
        </mxCell>
      </root>
    </mxGraphModel>
  </diagram>
</mxfile>
